<?xml version="1.0" encoding="UTF-8"?>
<svg id="Layer_1" data-name="Layer 1" xmlns="http://www.w3.org/2000/svg" viewBox="0 0 1000 1000">
  <defs>
    <style>
      .cls-1 {
        fill: #d9dada;
      }

      .cls-2 {
        fill: #4f4e3a;
      }

      .cls-3 {
        fill: #b4b59c;
      }

      .cls-4 {
        fill: #d9d9d9;
      }

      .cls-5 {
        fill: #d8d8d8;
      }

      .cls-6 {
        fill: #89895c;
      }

      .cls-7 {
        fill: #babcbe;
      }
    </style>
  </defs>
  <g>
    <path class="cls-6" d="M980.4,652.21c-7.05,14.49-15.06,27.66-18.15,43.87-24.78-2.84-54.86,3.21-78.82-.48-16.59-2.56-35.16-15.4-55.82-15.59-22.64-.22-52.07,10.38-75.23,12.01-46.62,3.29-92.58-11.91-135.02-8.03-16.12,1.47-32.46,9.7-48.06,11.44-23.98,2.69-50.27-4.16-72.99,4.39-12.4-2.84-23.3-41.33-15.87-51.58,9.57-6.01,22.14-8.36,37.71-7.04,58.8-17.52,113.08-12.65,173.32-4.53,42.74-5.12,85.3-5.59,127.69-1.42l6.48,9.02c26.2,2.47,50.65.37,73.36-6.28,5.59-9.12,11.97-17.9,18.33-26.58,2-2.73,4.91-1.75,7.5,1.13,4.23-11.02,54.13,26.88,55.58,29.95,1.48,3.12.98,6.55-.03,9.73Z"/>
    <path class="cls-6" d="M885.17,314.98c7.63-.31,10.29,6.28,7.98,19.76,3.12.34,37.64-25.54,19.79-31.66,9.53-6.09,31.12-5.5,41.89-4.19,23.32,2.82,31.43,48.67,29.07,69.23-1.03,8.96-6.9,17.98-7.47,22.24-11.94,7.54-40.52,18.11-51.58,7.93l-6.8-5.23c-4.8-40.35-18.09-42.69-55.1-41.86-22.88,10.1-62.52,21.59-80.94,3.45-2.52,2.35-5.04,4.18-7.54,4.15-78.38-.76-162.71-2.53-240.88-6.27-20.63,1.51-38.34-1.76-53.13-9.79l-.85-9.07,30.64-21.25c-12.95-.3-17.59-4.74-13.91-13.32,57.77,3.02,119.39-4.01,176.71-.14,55.78,3.76,160.02,26.12,212.14,16.01Z"/>
    <path class="cls-6" d="M456.65,176.12l3.64,11.2c-5.2,19.41-8.7,39.21-10.51,59.39l-9,4.78-8.37,4.8c-32.76-14.48-64.84,14.75-82.65,39.78-18.17,15.45-49.56,22.6-71.66,26.84-1.13,3.46-2.45,3.41-3.97,0l-7.94,7.93c-9.06,26.72-40.43,50.77-65.6,66.7l-9.79-3.22c-13.46,1.71-24.12-23.92-27.77-35.71,20.49-14.79,43.03-26.84,63.14-42,20.98-15.82,41.54-42.3,60.12-54.94,16.99-11.56,38.62-12.66,55.03-24.33,22.5-15.99,33.26-46.95,66.38-64.56,22.46-11.94,32.02-13.84,48.96,3.33Z"/>
    <path class="cls-6" d="M143.19,572.86c8.87-3.06,14.2-3.64,12.01,5.8l21.13,6.48c41.75,37.5,86.04,70.66,132.89,99.46,17.95,3.16,28.74,9.56,32.36,19.19,9.6,10.31-9.82,54.27-23.81,55.54-77.32-33.66-134.85-127.56-202.29-164.72-24.24-13.36-51.7-19.8-75.46-33.65l-2.42-8.74,27.8-21.88c5.36-8.62,11.45-12.96,18.27-13.02,1.61-1.02,3.25-1.87,4.98-2.12,3.58-.52,49.46,41.68,54,47.14l.54,10.53Z"/>
    <path class="cls-6" d="M992.3,604.6c-6.72,12.13-55.45,1.32-59.52-11.9-2.58-.88-4.65-1.86-4.92-3.2-3.35-16.69-7.92-58.78-2.45-72.19,4.4-18.13,8.18-35.32,11.34-51.57l6.97-5.97c16.72,3.32,36.88,5.64,52.55-1.97,11.15,41.18-7.86,54.27-8.26,89.3-.2,17.84,4.61,36.95,4.29,57.49Z"/>
    <path class="cls-6" d="M167,406.23l-.27,6.03c-31.5,9.28-59.18,24.46-83.05,45.55,5.97,9.14-1.23,35.35-7.94,43.64l-7.11,9.96c-18.94,7.66-37.73,14.92-56.38,21.78-5-8.63-10.9-13.84-11.23-25.69-.18-6.33,4.08-40.06,6.95-44.05,3.25-4.51,53.16-29.64,65.11-38.05,20.07-14.12,37.71-32.55,58.2-46.94,11.69,4.53,33.9,15.12,35.71,27.77Z"/>
    <path class="cls-6" d="M353.48,711.72l6.22-.75c20.24,20.9,48.84,31.58,77.55,32l3.52,4.46c-13.23,21.27-9.43,43.94-4.52,70.18,1.38,7.37-3.41,15.45,8.49,13.13-1.01.18-2.29,3.61-8.58,3.24-50.12-2.92-63.84-56.87-98.55-70.68,2.54-10.16,5-26.32,7.38-48.48l8.49-3.1Z"/>
    <path class="cls-6" d="M496.32,291.18c-.72,10.87-5.25,21.11-13.59,30.73-1.89,8.63-5.3,15.58-10.22,20.84,10.6,4.01,2.87,12.54-6.62,8.53-8.08-3.42-10.95-69.92-5.28-83.91-9.79,5.22-11.26,2.33-7.94-7.93,1.84-9.04,8.07-18.19,18.69-27.47,5.68-12.11,12.68-21.46,20.99-28.07,9.03,12.85,2.13,66.8,3.97,87.28Z"/>
    <path class="cls-6" d="M368.23,303.76c29.14-8.7,38.16,37.65,3.17,31.14-14.99-2.79-19.4-26.29-3.17-31.14Z"/>
  </g>
  <g>
    <path class="cls-2" d="M480.45,648.24c4.44,6.5,15.05,42.45,15.87,51.58,1.77,19.6,2.68,73.96-1.87,91.37-5.93,22.73-28.68,35.85-49.72,39.56-5.92,3.17-11,1.51-16.01-2.89-3.33-2.91-13.04-82.87,12.05-80.43-6.1-7.61-5.58-7.79,3.97-7.93l-7.14-6.01c8.95-32.7,16.6-65.15,22.93-97.36,8.61-6.04,25.26.7,19.91,12.12Z"/>
    <path class="cls-2" d="M976.43,390.36c-3.64,27.03,13.41,43.7,19.84,67.45.49,13.88,2.45,10.95-9.73,11.91-15.27,1.21-35.41,1.87-49.79-3.98-16.33-10.92-39.7-47.25-15.87-63.48-5.38-5.41-3.02-7.69,3.97-3.97,11.87-3.5,34.36-8.85,46.56-11.02,2.69-.48,5.72-.15,5.02,3.08Z"/>
    <path class="cls-2" d="M992.3,604.6c-.45,29.39-.52,24.2-11.9,47.61l-55.55-39.67c-8.74-1.74.06-21.35,7.94-19.84l59.52,11.9Z"/>
    <path class="cls-2" d="M492.36,203.89c-.76,18.15-23.2,48.34-39.68,55.54-8.65,6.93-14.92,2.75-11.9-7.93,5.19-24.14,4.33-53.92,15.87-75.38,3.24,3.28,5,8.01,9.81,11.9,7.73,6.24,20.82,8.64,25.9,15.87Z"/>
    <path class="cls-2" d="M75.74,501.45c11.36-2.02,14.88,7.24,7.94,15.87-5.75,19.82-29.97,29.18-43.65,43.64-17.34-10.12-17.7-10.39-27.77-27.77-2.11-9.63,4.89-8.21,10.45-11.17,16.82-8.97,34.32-16.48,53.04-20.57Z"/>
    <path class="cls-2" d="M163.03,358.62c12.63.93,20,24.95,27.77,35.71.01,12.51-14.03,18.71-23.81,11.9-12.3-5.09-33.39-14.19-35.71-27.77,10.07-7.07,22.42-13.11,31.74-19.84Z"/>
    <path class="cls-2" d="M496.32,299.11c4.53,10.53,30.18-2.75,35.68,7.88l-51.55,35.76c-2.23,7.55-5.7,7.6-7.94,0-8-15.34,13.25-41.34,23.81-51.58.23,2.61-.16,5.31,0,7.93Z"/>
    <path class="cls-2" d="M353.48,711.72c-2.21,7.66-6.51,49.43-8.03,51.55-.58.81-5.62-.23-7.84.03-3.48-1.38-9.82.4-19.84-3.97l23.81-55.54c7.47-9.28,14.09-1.46,11.9,7.93Z"/>
    <path class="cls-2" d="M912.94,303.08c7.3-1.12,20.84-.9,27.75,1.96-10.61,5.25-45.37,47.79-55.51,37.72-1.37-1.36.9-22.37-.02-27.78,6.05-1.17,16.79-10.21,27.77-11.9Z"/>
  </g>
  <path class="cls-3" d="M440.77,251.5c3.4,1.77,9.11,5.46,11.9,7.93,2.39,2.12,6.53,5.51,7.94,7.93-6.5,28.45-2.65,57.07,4.51,85.1,104.62-1.05,207.93.61,309.91,5l6.98-2.82c15.58-.15,34.38,1.75,49.25-.35,11.56-1.63,23.3-10.75,31.9-11.01,4.47-.14,40,2.63,43.04,3.35,6.76,1.61,24.21,41.7,18.66,51.66-1.17.34-2.57,3.48-3.97,3.97-15.78,15.26-12.6,35.36,9.55,60.29,6.89,16.44.72,58.89-16.02,63.26,28.16,39.8,11.53,112.06-40.31,118.91l-48.45-.45c-59.26-9.5-70.03-2.3-124.79.18-37.94,1.72-74.82-10.78-111.45-8.24-34.7,2.41-70.63,20.03-108.95,12.03-1.48-2.16-15.27-8.62-15.83-7.93-.79,13.04-1.15,32.46-5.11,44.53-8.71,26.55-10.12,22.25-14.77,54.66-32.63,9.02-86.16-15.2-98.87-48.7-5.65,3.06-10.27,2.79-16.33,1.33-22.74-5.47-45.14-20.94-63.72-34.58-28.8-21.14-58.24-46.93-83.4-70.62-13.65-2.94-26.73-7.63-39.23-14.06-14.32-10.97-50.17-41.98-59.52-55.54-2.43-3.53-6.67-11.86-7.94-15.87-5.35-16.98-.44-28.24,7.94-43.64,11.24-11.88,25.54-20.66,40.1-28.23,64.3-19.22,116.35-50.14,154.33-106.66,10.65-16.53,45.38-15.29,63.34-29.9,7.48-6.08,10.23-15.38,18-21.67,26.61-21.54,48.43-36.93,81.33-19.84Z"/>
  <path class="cls-5" d="M920.88,402.26c-14.87,28.64,8.96,42.55,15.87,63.48,7.71,23.37-6.34,38.33-8.09,61.31-1.71,22.41,7.25,45.3,4.12,65.65-.16,1.06-7.21,18.59-7.94,19.84-.64,1.09-6.94,3.79-9.68,7.98-4.13,6.31-7.96,19.67-11.15,22.75-11.17,10.83-62.08,3.62-78.37,1.01,25.52-11.98,51.86,7.45,73.17-16.11,24.86-27.48,32.97-55.27,15.07-89.97-7.26-14.08-25.62-11.61-32.68-24.81,8.48-2.83,34.63,7.76,39.41,3.65,1.74-1.49,9.03-39.4,8.17-45.03-3.12-20.27-38.69-34.14-17.6-65.82,6.47-9.71,9.11-3.72,9.7-3.92Z"/>
  <path class="cls-1" d="M472.52,342.75c2.59.26,5.36-.32,7.94,0,55.47,6.93,112.14,2.01,168.8,3.8,44.43,1.41,87.84,8.52,132.76,8.1,2.21,12.02-6.07,7.63-13.71,7.94-74.59,2.95-148.48-5.56-226.14-3.8-39.02.89-68.41-16.07-97.38,19.66.46-11.37,9.75-18.36,11.59-29.99,4.23-26.68-12.15-55.25,4.24-81.1,6.55,11.26-1.18,16.78-.39,29.77.54,8.78,4.36,49,10.33,49.39.7.05,1.57-3.81,1.96-3.77Z"/>
  <path class="cls-4" d="M83.67,457.81c16.58-30.47,54-36.79,83.32-51.58,7.94-4,16-7.48,23.81-11.9,40.01-22.67,45.12-33.79,75.39-63.48l7.94-7.93h3.97c-.11.18,2.82,2.12,1.65,3.9-38.16,58.08-74.02,88.24-144.42,101.31l-51.65,29.69Z"/>
  <path class="cls-7" d="M266.19,330.85l7.94-7.93c-1.27,4.25-5.51,5.55-7.94,7.93Z"/>
  <path class="cls-4" d="M143.19,572.86l23.81-15.83-11.88,19.78c7.4-.17,30.55.44,34.87,5.06,1.73,1.85-.51,7.74,3.34,11.09,20.97,18.21,65.27,56.94,86.66,71.25,24.79,16.59,54.43,35.7,77.43,7.84-.4,14.08-9.21,19.56,1.92,31.86,20.36,22.51,59.02,26.79,85.41,35.58-.86,5.98-2.19,5.08-3.97,7.93-23.24,7.72-53.84-5.16-72.37-19.74-4.7-3.7-7.77-10.11-14.92-15.96-5.83-4.77-3.85-4.16-11.9-7.93-68-31.88-69.37-37.11-125.1-83.2-23.58-19.5-49.7-29.66-73.29-47.73Z"/>
</svg>