<?xml version="1.0" encoding="UTF-8"?>
<svg id="Layer_1" data-name="Layer 1" xmlns="http://www.w3.org/2000/svg" viewBox="0 0 1000 1000">
  <defs>
    <style>
      .cls-1 {
        fill: #42830d;
      }

      .cls-2 {
        fill: #89c51a;
      }

      .cls-3 {
        fill: #87c820;
      }

      .cls-4 {
        fill: #96d532;
      }

      .cls-5 {
        fill: #6baf0d;
      }

      .cls-6 {
        fill: #474746;
      }

      .cls-7 {
        fill: #57ab14;
      }

      .cls-8 {
        fill: #9ec70e;
      }

      .cls-9 {
        fill: #6d9d06;
      }

      .cls-10 {
        fill: #356c0b;
      }

      .cls-11 {
        fill: #2f6d10;
      }

      .cls-12 {
        fill: #75ab09;
      }

      .cls-13 {
        fill: #538e07;
      }

      .cls-14 {
        fill: #98cb18;
      }

      .cls-15 {
        fill: #dbdbdb;
      }

      .cls-16 {
        fill: #a1de36;
      }

      .cls-17 {
        fill: #588c26;
      }

      .cls-18 {
        fill: #478f0e;
      }

      .cls-19 {
        fill: #5a86a3;
      }

      .cls-20 {
        fill: #a5a5a5;
      }

      .cls-21 {
        fill: #969696;
      }

      .cls-22 {
        fill: #88c81e;
      }

      .cls-23 {
        fill: #91bd0b;
      }

      .cls-24 {
        fill: #78b109;
      }

      .cls-25 {
        fill: #74b00b;
      }

      .cls-26 {
        fill: #66ae11;
      }

      .cls-27 {
        fill: #89b304;
      }

      .cls-28 {
        fill: #54a713;
      }

      .cls-29 {
        fill: #95d408;
      }

      .cls-30 {
        fill: #8fc415;
      }

      .cls-31 {
        fill: #8cc81b;
      }

      .cls-32 {
        fill: #36566e;
      }

      .cls-33 {
        fill: #61a312;
      }

      .cls-34 {
        fill: #70ae0d;
      }

      .cls-35 {
        fill: #649438;
      }

      .cls-36 {
        fill: #358713;
      }

      .cls-37 {
        fill: #76b318;
      }

      .cls-38 {
        fill: #378812;
      }

      .cls-39 {
        fill: #458b0d;
      }

      .cls-40 {
        fill: #4e7795;
      }

      .cls-41 {
        fill: #47a518;
      }

      .cls-42 {
        fill: #4f8e0b;
      }

      .cls-43 {
        fill: #3b8910;
      }

      .cls-44 {
        fill: #598f24;
      }

      .cls-45 {
        fill: #3c740d;
      }

      .cls-46 {
        fill: #b1d51e;
      }

      .cls-47 {
        fill: #9ac610;
      }

      .cls-48 {
        fill: #4eaa17;
      }

      .cls-49 {
        fill: #807e77;
      }

      .cls-50 {
        fill: #4a7509;
      }

      .cls-51 {
        fill: #333332;
      }

      .cls-52 {
        fill: #595851;
      }

      .cls-53 {
        fill: #babcbe;
      }

      .cls-54 {
        fill: #254154;
      }

      .cls-55 {
        fill: #388812;
      }

      .cls-56 {
        fill: #bcdf15;
      }

      .cls-57 {
        fill: #518d08;
      }
    </style>
  </defs>
  <path class="cls-52" d="M871.36,677.65c4.99,6.83,5.68,15.69,1.56,23.16,3.58,1.64,4.63,4.1.7,5.27l.86,9.62c3.88,2.45,3.88,4.16,0,6.62l3.48,8.33c-.4,7.3-1.04,14.45-1.91,21.45,4.61,7.81,5.13,14.98,1.56,21.51,2.85,3.94,2.85,6.14,0,6.62.1,1.64-.11,3.32,0,4.96l1.56,4.96c1.37,18.9,1.26,37.99,3.33,56.87,3.18,28.97,10.08,58.64,13.44,87.72l-31.73,45.57c-2.52,2.46-6.02,3.04-9.29,3.41-17.02,1.89-37.44.62-54.81,1.59-81.88,4.58-163.57,9.56-245.6,13.24-92.37,4.13-183.25-1.41-275.28-6.53-34.86-1.94-77.07-.64-110.85-6.85-4.43-.81-9.78-1.05-12.81-4.65l-39.45-54.31,9.04-81.47,1.96.33c4.77,16.68,12.66,30.69,23.66,42.04l.98,3.96c2.45-2.31,3.34-1.35,1.56,1.65-.44,3.34-.3,6.81.21,10.1.85,5.41,29.13,60.94,32.44,60.93,31.6-1.96,63.38-3.08,95.32-3.37,66.92,11.78,135.61,19.63,204.42,21.67l160.26-17.89c16.28-35.69,32.91-72.52,48.79-108.42-3.19,1.58-19.79,9.74-21.69,8.05-4.63-4.12-4.58-6.53,1.96-10.9,51.59-46.74,101.9-94.13,150.95-142.17-3.89-51.38-4.48-101.79.23-153.86,3.37-37.25,7.42-74.74,11.52-111.9.47-4.29,2.19-8.31,3.89-12.19-1.6-3.66.05-8.22,4.94-13.7l-22.6,10.4c-1.71.62-3.15-.14-4.24-1.66-3.56,1.94-4.72-.67-2.72-4.25l22.95-31.13.09-13.35c1.11-3.11,4.21,3.41-1.54-.92l-2.47-.12c-2.32-5.15-3.07-11.17-2.23-18.08-1.9-4.57,4.34-8.09,7.82-4.96,3.47,1.47,5.08,5.88,4.83,13.23l32.07-29.06,3.77.94c-6.24,75.23-15.63,161.13-17.27,235.7-.7,31.87,4.18,69.49,6.32,101.82Z"/>
  <path class="cls-49" d="M721.18,48.94l1.88,3.71c-5.06,14.4-6.8,29.88-7.98,45.09l-3.29,2.49c-2.27,6.9-21.5,2.56-23.47-3.31-28.49-6.57-57.1-13.57-85.84-21.01-22.91-4.51-40.36-3.94-64.16-2.29-58.25,4.03-117.27,10.98-174.63,17.88-3.13-1.06-5.47-.9-7.01.46,1.94,2.35,1.08,3.15-1.56,1.65l-2.87,1.9c-16.16-1.98-32.98-1.46-50.44,1.56l-1.44-3.47c-4.85-.7-9.94-10.94-6.26-14.89l-3.76-1.15c-2.39-4.24-7.3-18.03-5.63-22.02-4.16.49-4.58-.26-1.56-3.31l30.57.07c90.05-6.88,180.52-9.77,270.73-16.45l136.71,13.07Z"/>
  <path class="cls-52" d="M176.79,475.8l-3.13,1.65c-.38,1.47-.91,1.44-1.56,0l-1.71,3.37-13.68.35,15.39,161.76c6.83,15.45,18.17,27.89,34.02,37.34,1.71,2.84.47,4.43-2.73,3.99-10.44,1.02-20.76-.03-30.95-3.16,1.76,2.23,2.17,4.38,1.23,6.47,6.36,2.47,4.17,14.24,1.56,19.85l2.05,3.3c-3.39,10.82-2.28,22.55-.85,33.67l-2.76,2.74c-.55,11.89-1.69,23.75-3.4,35.58l13.9,1.68.45,4.11c-2.17,5.86-14.93,8.15-18.77,3.31l-6.15-5.62c-10.69-3.88-19.14-7.49-23.58-19.19-4.39,1.36-5.1-.23-1.56-3.31-1.42-.39-1.38-.94,0-1.65l-3.26-3.33c-1.66-7.44,3.74-34.45,7.95-41.35-4.47-1.03-3.68-4.84-2.81-8.74-1.48-2.27-1.06-4.87,1.24-7.81-.55-80.14-6.26-159.94-6.26-239.9l3.31-1.52c12.47,14.81,16.65,14.5,12.52-.93l2.94-2.52c1-1.47,2.16-3.05,3.84-3.68,3.94-1.47,19.93-5.55,24.04-6.11,1.77-.24,3.47.66,4.98,1.51.68-5.43,9.42-11.07,14.08-8.27l2.94-5.33c10.21-7.17,19.73-15.21,28.43-24.36l4.61-.09c.91-5.65,4.41-10.98,10.48-15.98,4.06-6.83,8.91-11.43,14.55-13.8-2.72-5.35,4.15-13.43,9.39-14.89l-.73-4.98c6.28-10.44,12.05-21.17,16.74-32.52l4.32-2.21c-.06-12.43,5.07-26.73,12.51-36.4-2.57-9.93.52-27.77,7.82-34.74l2.59,4.52c-14.82,81.84-48.53,188.13-129.01,219.34l-4.99-2.15Z"/>
  <path class="cls-52" d="M176.79,168.06l2.81,1.86-27.79,128.43,1.69,4.96c13.21,15.67,9.01,25.64-.13,41.76-2.53,21.32-2.97,43.25-1.3,65.77l-3.43,3.74c-1.56,4.52-4.84,4.45-6.26,0-17.36,7.26-19.76-16.05-17.19-28.7.56-2.77,1.15-5.63,3.11-7.7-3-.93-3-2.38,0-3.31-.52-6.82-1.53-13.64-3.02-20.44,2.4-1.81,2.88-4.92,1.46-9.34-4.15-5.92-4.16-12.28,0-18.2-.33-18.06-.3-39.32-1.58-57.06-3.07-42.57-15.72-93.51-15.63-134.86-1.79-5.09-2.15-10.51,3.85-11.07,3.69-.34,55.87,35.04,63.45,40.32l-.03,3.84Z"/>
  <path class="cls-49" d="M255.01,55.55c10.6,9.06,20.85,27.23,18.77,41.36-.28,1.3-.72,3.25-1.64,3.38-5.18.71-26.39,1.89-30.59,1.05l-46.68-26.73,27.36,32.21.92,3.83c-12.33,19.65-25.69,37.13-40.11,52.44,3.04,4.46-3.01,9.75-6.26,4.96l-64.95-41.34c-3.75-1.22-2.31,5.76-2.32,8.25-2.94-2.72-2.08-9.68-.11-12.53l67.44-62.68c24-3.03,48.79-1.58,72.76-4.19,2.27-.25,3.41-.67,5.39-1.67,1.37.47,1.35,1.02,0,1.65Z"/>
  <path class="cls-52" d="M902.64,138.28c-3.75,29.65-5.8,59.69-9.39,89.34,3.58,7.8,2.26,16.66-3.13,23.16l2.92,2.01c.52,5.55-2.53,29.62-4.83,34.67-1.94,4.26-19.4,24.95-22.59,23.96-.73-.23-1.42-.63-2.09-1.08-3.3,7.08-14.83,15.44-21.9,11.58l-3.17-1c-2.04-47.47-4.08-94.95-6.12-142.43l3.04-2.17,1.57-4.37c22.76-5.85,39.74-14.03,55.92-32.25,1.72-.48,3.45-.72,5.09.23.18-4.94,1.76-5.49,4.69-1.65Z"/>
  <path class="cls-49" d="M757.16,52.24c24.59.77,49.32,6.29,73.99,6.95,8.7,7.04,14.82,17.24,24.56,22.83,13.31,13.53,26.81,27.26,40.51,41.19l.17,5.14c2.41,2.97,4.79,6.27,6.26,9.93-1.65.24-3.28.68-4.69,1.65l-4.28.93c-29.75-7.02-60.11-14.06-90.43-19.45-4.69-3.29-6.49-3.74-5.41-1.33-2.23,1.53-5.5.94-9.81-1.77l-51.66-9.29c-.52-.55-3.85-5.78-3.95-6.14-2.25-7.91,9.69-42.67,15.36-50.63.61-5.62,7.32-4.53,9.39,0Z"/>
  <path class="cls-7" d="M134.55,762.03c.04.55-.1,1.15,0,1.65-4.17,8.94-4.91,17.09-3.33,27.13,4.32-2.72,8.56-4.6,12.72-5.63,4.14-1.79,8.08,2.2,6.26,6.62l-.8,3.54c-24.66,4.39-13.23,18.9.67,27.69l1.69,3.52,2.92,3c-1.31,9.32-1.38,18.61-.19,27.86-1.75,1.83-3.75,1.23-5.86.58-3.15,4.35-18.14-6.76-20.56-10.04-1.38-1.87-2.18-4.27-2.9-6.5-5.63-5.4-15.39-17.64-20.07-24.27-4.89-6.94-15.63-23.69-15.91-31.98.74-12.18,37.7-30.97,43.67-25.34.65.62,1.19,1.37,1.69,2.17Z"/>
  <path class="cls-16" d="M126.73,326.89c.11,6.03.14,12.18,0,18.2,1,5.38,2.24,13.61-4.78,9.4,6.3,3.52,7.2,14.22,4.78,20.38-3.79,3.35-8.83,3.75-15.1,1.2-23.87-9.55-46.99-20.43-69.38-32.63-4.71-3.67,8.43-8.73,11.46-10.22,19.95-9.78,53.56-20.04,73.01-6.33Z"/>
  <path class="cls-5" d="M954.27,740.52c-1.04,1.61-2.25,3.46-4.08,4.04-12.84,4.04-55.37-1.09-67.25-10.04-4.74-3.57-7.13-5.65-8.44-12.19-.07-2.18-.09-4.44,0-6.62-.91-3.89-2.24-10.38,1.03-12.64,2.78-1.92,24.18,1.08,24,7.67-.34,1.65-1.31,2.66-2.74,3.22,4.16,8.64,11.02,15.78,18.52,21.31l.64,3.59c2.06-3.6,7.02-4.7,14.89-3.31,6.57-1.27,10.99-.17,13.27,3.31l-.34-2.31-34.48-18.66-.37-3.85c-9.75-11.01-18.84-11.32-32.85-11.04-1.4.03-2.41-.88-3.13-2.19-.39-7.75-1.05-15.42-1.56-23.16,15.94-3.58,21.02-9.36,35.84.98,14.64,10.21,40.45,44.72,47.07,61.9Z"/>
  <path class="cls-41" d="M183.05,447.67c-10.26,4.43-21.73,7.52-32.85,8.27-1.32,5.47-17,5.62-18.77,0-5.47-.98-16.02-7.64-20.34-11.58l-.72-3.98c6.61-8.98,21.14-27.4,32.01-25.8,1.57-.41,4.32.13,6.26,0,1.2-4.9,8.01-4.6,9.39,0,2.17-4.99,16.8-7.27,20.34-3.31,1.73,3.55,2.34,8.13,1.83,13.72l5.41,19.71-2.55,2.97Z"/>
  <path class="cls-34" d="M897.95,17.5c-2.89,5.28,4.57,31.79,7.07,34.42.44.46.63,1.18.75,1.98,1.24,8.3,2.32,16.44,3.13,24.82-4.43-2.24-9.13-4.45-14.08-6.62.8-11.58-.72-38.01-14.07-39.7l-1.58,47.98c-31.37-6.36-24.94-47.89-9.34-68.63,14.08-18.72,21.26-13.79,28.12,5.75Z"/>
  <path class="cls-1" d="M957.4,221c-3.97,14.7-30.19,40.6-44.12,45.17-6.25,2.05-13.45,3.07-20.02,2.83,16.48,25.9,9.03,34.42-9.39,52.93-.79,4.55-3.05,10.07-7.82,6.62-2.97-3.78-.55-3.35-.61-1.11-.05,1.91-16.1-7.81-11.91-12.13-2.04-.05-2.04-1.7,0-4.96,4.91-3.82,20.26-19.8,22.29-25.24,2.54-6.79,3.2-25.63,4.31-34.32-.31-4.55,26.53-19.72,28.11-19.03,6.89,3,2.41,8.37-2.2,11.94-16.71,12.24-18.08,16.35-4.11,12.36,14.98-10.3,28.88-22.26,41.69-35.9l3.77.85Z"/>
  <path class="cls-24" d="M957.4,221l-25.85,24.77c-10.75,7.38-21.91,22.18-35.12,10.8,0-2.29,22.09-16.94,23.43-22.32l-29.72,16.53c.98-7.7,2.2-15.51,3.13-23.16,13.7-21.42,43.61-11.37,64.18-9.14,2.92,2.45.08,2.08-.04,2.53Z"/>
  <path class="cls-12" d="M757.16,52.24c-2.5-.08-7.44-.52-9.39,0-2,3.85-4.08,6.6-6.26,8.27-12.25-10.99-14.08-3.87-16.1,9.46-1.72,11.29-2.4,21.6,6.28,5.53l3.57,1.56c.95.65,1.68,1.27,1.62,1.79-.52,4.59-3.11,18.87-4.4,22.9l-3.48,1.78c2.27,5.88,2.36,12.78.28,20.71.62,6.43-.51,11.66-3.41,15.69-.52,5.13-14.17,1.72-14.08-3.31-4.84-9.47-5.48-27.38,0-36.4.78-14.43,3.61-38.41,9.39-51.29,10.52-23.45,29.08-20.58,35.98,3.31Z"/>
  <path class="cls-57" d="M139.25,717.36c-.22,14.02-5.74,30.27-4.69,44.67-17.45,0-33.16,10.91-45.37,23.16-.52-15.36,22.94-41.11,32.91-52.12,1.17-1.3,1.18-3.79,1.51-4.13-1.91-5.82,11.15-15.48,15.64-11.58Z"/>
  <path class="cls-36" d="M128.3,378.18c.1,5.53-.38,30.02,1.78,32.86,1.13,1.49,10.41.63,12.3,3.54-8.92,2.35-24.47,22.5-31.29,29.78-2.36-2.15-5.29-3.56-6.63-7.04-5.34-13.89,8.71-37.74,16.02-49.21-3.3-4.94,2.69-13.64,7.82-9.93Z"/>
  <path class="cls-11" d="M876.05,90.3l7.04,1.78c5.73,6.65,11.35,7.95,16.84,3.89,8.79-12.31,9.31-7.96,10.54,4.26,1.13,12.26,2.77,32.86-14.08,28.13-8.96-11.07-23.02-21.48-32.09-33.07l-8.58-13.26c5.87,3.37,14.87,4.83,20.34,8.27Z"/>
  <path class="cls-25" d="M136.12,700.81c2.9,25.11-16.7,20.31-31.34,10.59-7.26-4.82-16.99-12.66-21.85-18.86,4.47-5.71,20.55-9.28,27.28-8.17,7.43,1.23,20.27,10.84,25.91,16.44Z"/>
  <path class="cls-4" d="M891.69,743.83l6.55,12.1c4.15,10.11,3.37,29.49,2.84,40.85-.91.71-1.67,1.23-1.9,1.03-7.34-6.14-17.61-15.78-21.57-24.2-.43-7.21-1.18-14.34-1.56-21.51,2.07-1.87,2.17-6.03.32-12.46-.53-10.66,15.44-2.53,15.33,4.18Z"/>
  <path class="cls-50" d="M954.27,740.52c.83,2.15,2.14,4.01,1.53,6.56-20.31,6.31-44.16,4.09-64.11-3.26-2.72-1-8.42-5.29-11.74-6.58-9.93.61,12.62,29.41,10.16,34.7l-14.06-19.85c-.53-9.91-1.26-19.88-1.56-29.78,9.18,10.08,13.67,12.75,26.54,15.78,16.98,4,36.15,5.77,53.24,2.42Z"/>
  <path class="cls-51" d="M882.31,340.13l-38.33,34.74-2.34-19.85c.63-2.1,1.45-4.22,3.04-5.71,5.12-4.8,19.45-16,25.26-19.62,1.84-1.14,4.04-1.21,6.12-1.14,2.39-2.16,5.59-4.38,7.82-6.62.96,6.36-1.07,12.2-1.56,18.2Z"/>
  <path class="cls-51" d="M148.63,857.99c3.86-2.82,5.95-2.27,6.26,1.65,1.18.3,2.88.82,2.97,1.79.2,2.32-2.07,25.52-2.75,27.66l-3.34,1.98c-11.02-2.81-25.61-34.65-26.59-46.33-.09-1.09.06-2.22,0-3.31,4.13,3.96,18.39,14.58,23.47,16.55Z"/>
  <path class="cls-9" d="M269.09,45.63c4.5-.65,7.65,2.37,9.44,9.06,2.75-1.34,4.82-1.05,6.2.87,5,8.64,6.19,14.49,9.39,23.16-3.98,3.6-9.19,5.26-15.64,4.96l-3.67-.9c-4.09-10.79-11.66-19.62-19.8-27.22v-1.65c5.95-2.99,4.57-6.07,14.08-8.27Z"/>
  <path class="cls-10" d="M82.93,692.54c14.01,7.64,28.23,28.04,45.45,22.42,2.02-.66,6.74-4.17,6.17-6.66-1.12-4.83-24.87-12.11-28.15-17.4,11.4-3.63,19.83,10.19,27.4,13.2,2.67,1.06,2.65-1.23,2.32-3.29h1.56c.04,5.94,1.64,11.83,1.56,16.55-4.53,2.27-12,7.72-15.64,11.58l-41.5-33.05c-2.46-2.71.22-2.58.82-3.35Z"/>
  <path class="cls-17" d="M126.73,374.87c.44-1.44.97-1.42,1.56,0,0,1.1-.02,2.21,0,3.31-4.26,1.9-5.46,6.22-7.82,9.93l-78.22-44.67c.95-3.33,4.67.02,6.28.81,24.39,12.04,51.43,29.57,78.2,30.63Z"/>
  <path class="cls-18" d="M908.9,78.72c.69,7.14,1.95,14.27,1.56,21.51-.17-1.83-3.17-6.28-1.58-9.92-2.97,1.87-3.68,5.67-7.02,8.26-11.79,9.12-17.78-3.21-25.81-8.26,14.27.74,17.78-3.93,18.77-18.2,6.05-3.53,11.75.15,14.08,6.62Z"/>
  <path class="cls-51" d="M150.2,455.94l1.56,19.85c-9.05-1.1-13.53-9.9-20.33-14.88v-4.96c4.39.78,13.92.33,18.77,0Z"/>
  <path class="cls-46" d="M905.77,53.9c-3.93.84-3.34-1.88-4.2-4.57-1.67-5.22-7.61-21.2-8.08-24.79-.52-3.91,1.63-5.53,4.47-7.04,4.67,13.31,5.77,22.64,7.82,36.4Z"/>
  <path class="cls-35" d="M901.08,796.77c-.07,1.5.75,4.57-.77,4.96l-22.69-21.5c-.14-2.19.13-4.43,0-6.62l23.47,23.16Z"/>
  <path class="cls-56" d="M283.17,52.24c.63.84.97,2.29,1.56,3.31-1.7.7-6.58,4.27-7.8,3.31-.6-.48-4.09-11.83-7.84-13.24.39-.09,1.16-1.57,2.47-1.63,5.74-.28,8.49,4.08,11.61,8.25Z"/>
  <path class="cls-35" d="M879.18,790.16l-1.56-4.96c.02.26,1.31,1.5,1.56,4.96Z"/>
  <path class="cls-53" d="M425.52,100.22c7.37,1.71,15.3,1.79,23.8.25,35.15,7.72,69.6,7.91,103.34.59,9.44-1.41,16.34,4.26,20.72,17.01,4.71,9.83,10.58,14.81,17.6,14.95,6.08,1.5,31.75,6.91,36.19,4.97,1.35-.59,2.46-1.55,3.51-2.63,5.94-8.99,12.11-17.66,18.51-26.01,3.04-1.35,55.01,19.81,61.37,23.88l1.26,16.63c3.04,3.79,3.04,7.79,0,11.58,2.95,67.23,9.44,130.25,36.82,191.11,24.44,54.33,41.44,55.31,86.5,23.88l3.39,1.75c1.59-.96,2.56-2.15,4.68-1.65-.58,5.19,1.06,12.2-.31,17.03s-19.42,24.66-23.28,31.85c-.62,1.16-2,1.66.13,2.4,3.84-.4,3.98.23,1.56,3.31l.94,4.17c-8.54,26.62-16.96,53.36-25.25,80.23-.73,25.93,3.81,51.71,13.63,77.36,5.66,38.94,10.79,78.22,15.38,117.85-.18,1.65.22,3.37-.81,4.87-51.27,48.32-100.34,99.52-154.06,144.88,8.42.7,18.21-6.65,25.84-9.08,2.18-.69,2.79.16,2.29,2.42l-51.08,113.44-162.45,18.11c-47.8-2.04-96.32-5.7-143.89-11.58-18.88-2.34-39.95-8.41-57.91-9.89s-37.83,1.14-56.31,1.62c-13.98.36-28.16-1.17-41.93,1.43-1.96-.5-2.91-2.59-3.96-4.17-4.88-7.27-29-50.29-30.82-56.73-.66-2.33-1.4-12.35-.7-13.33.16-.23,2.43.07,3.13.01,1.55-3.61,10.19-7.94,14.08-6.62,6.65-3.25,7.76,1.18,3.33,13.31,22.02,38.85,24.4-11.63,14.54-27.83l.91-3.67.63-5.56c18.81-23.43,37.44-47.32,54.12-72.2-1.86-4.77-.15-7.15,4.69-6.62l3.62-11.07c10.18-15.7,4.8-29.97-16.15-42.79l.02-4.05c-4.68-3.59,7.68-18.66,11.06-20.29,4.52-2.18,13.06-.66,12.4,5.4,32.36,14.4,51.81,20.32-2.66-18.38-27.82-14.13-57.17-31.36-70.95-61.02,2.54-21.58,4.62-43.28,6.22-65.11-4.64-28.11-11.06-55.86-19.24-83.27l2.15-5.5c.52-.06,1.05.07,1.56,0l3.13-1.65c75.13-16.47,123.16-150.51,131.4-221.7-3.37-11.31-2.17-24.3,3.13-34.74l-2.79-5.75c1.03-17.09,1.35-34.2.11-51.29l2.69-5.84c-5.79-11.16-8.64-28.89-6.26-41.36,2.63-2.99,6.75-4.24,12.37-3.77,27.22-7.23,40.31-6.88,62.6,10.16.1.07-1.25,1.06.12-1.43,2.67-4.94,4.76-10.46,6.26-16.55l2.29-2.92c11.49,0,22.95-1.16,34.36-3.48l2.45,3.08Z"/>
  <path class="cls-53" d="M852.59,912.59c-.24,4.16.82,6.64-1.48,10.85-2.01,3.69-20.46,19.54-25.11,23.89l-6.34,3.11c-11.69.84-62.6,2.69-71.8-3.19-4.9-3.14-4.25-6.85-3.12-12.28l9.21-33.34c1.86-12.66-1.74-25.53-10.82-38.61-4.1-10.08-8.01-22.41-4.73-33.15,2.57-3.89,5.54-7.4,9.39-9.93,3.66,1.42-2.17,4.74-1.92,4.53,7.18-6.38,53.72-37.78,60.56-37.05,3.78.41,35.08,33.51,36.11,37.58,4.67,29.01,8.02,58.21,10.07,87.6Z"/>
  <path class="cls-20" d="M825.99,947.33c-3.11,2.91-5.59,8.03-10.54,9.53-21.77,2.2-43.52,3.49-65.39,3.64l-72.67,5.02c-1.31-1.33,9.48-24.9,11.18-28.7,12.97-29.08,33.79-82.63,49.83-106.96,1.98,8.1,2.35,15.86,4.64,24.05,3.05,10.87,15.03,29.22,15.63,38.19s-14.48,46.92-11.07,51.18c1.91,2.38,16.92,3.85,21.24,4.12,18.66,1.15,38.39-.99,57.16-.07Z"/>
  <path class="cls-20" d="M841.64,432.78c-2.99,55.95-12.89,112.05-15.63,167.95-1.7,34.78,3.66,76.67-.02,110.01-4.99-17.51-8.26-35.93-10.69-54.05-1.96-14.57-1.9-29.7-3.82-43.94-4.42-32.83-24.56-70.15-16.81-101.41,6.68-26.91,18.83-53.57,26.62-80.22l2.72-2.25c5.76,2.36,11.64,3.66,17.62,3.9Z"/>
  <path class="cls-49" d="M747.77,819.94c16.19-23.46,47.24-53.2,67.23-75.32,1.9-2.1,10.53-12.26,12.53-10.71l27.83,54.14c1.46,28.44-1.07,56.48-1.21,84.83l-1.56,33.09c-.05,2.2.13,4.43,0,6.62-6.89-28.11-7.54-57.86-12.93-86.43-.87-2.28-30.4-34.17-32.48-35.27-2.6-1.37-9.74,3.53-12.5,5.01-12.74,6.85-36.1,25.22-47.71,28.97-.81.26-2.55.46-2.31-.79,1.35-1.14,2.13-2.71,3.12-4.14Z"/>
  <path class="cls-52" d="M714.92,184.6c5.23,4.96,7.08,16.96,3.13,23.16,4.89,1.4,5.69,10.37,1.56,13.24,1.39.41,1.36.96,0,1.65l2.77,4.02c5.23,25.57,11.63,50.86,19.2,75.85l-.06,9.48,4.07,2.04c5.69,16.57,11.87,34.2,26.2,44.59l1.02,4.65,4.23-1.27c16.85,9.24,36.33,4.18,52.71-3.7l4.07,1.66c6.19,3.08.93,12.58,4.69,18.2-18.71,11.28-46.67,34.23-67.28,15.73-24.96-22.4-46.13-92.74-52.45-126.52-6.94-37.13-6.75-68.46-6.98-105.95,5.95,1.57,7.76,19.37,3.13,23.16Z"/>
  <path class="cls-48" d="M863.54,315.31c.25.83,9.26,7.86,10.95,9.18,2.08,1.62,4.82-.79,1.56,4.06-10.98,9.93-21.74,18.96-34.42,26.47-2.41,1.43-5.89,4-7.82,4.96-19.45,9.7-41.61,15.83-61.01,3.31-4.1-3.81-4.34-8.3,1.56-8.27,3.84-1.72,6.39-5.74,7.65-12.06l3.3-1.18,4.64-2.35c26.77,5.62,50.11-7.46,70.71-24.32l2.86.2Z"/>
  <path class="cls-6" d="M186.18,867.92l.82,3.87c-2.9,4.67-15.14,16.86-19.59,14.33-5.92,4.77-6.06,5.97-14.08,6.62-.28-.7-.88-1.48-1.56-1.65l3.13-31.44,2.59-3.29c13.14-2.22,24.72-8.85,34.75-19.88h4.9s1.73-5.81,1.73-5.81c12.14-10.69,23.32-22.49,33.42-35.34l5.52-1.87c-1.6-4.25-.85-5.06,3.13-3.31-3.51,9.81-10.61,19.46-16.56,27.98-10.95,15.69-25.62,35.8-38.19,49.78Z"/>
  <path class="cls-49" d="M841.64,432.78c-3.9,5.65-15.58,1.09-20.34-1.65-.96-.55-1.33-2.19-1.56-3.31l35.96-16.54-14.06,21.51Z"/>
  <path class="cls-45" d="M872.92,700.81c17.39-3.79,23.61-1.49,36.48,10.22,2.5,2.27,4.91,3.23-.5,3.01-.49,1.42-1.01,1.41-1.56,0l-3.13-1.65c-3.04,3.35-4.17,2.96-4.69-1.65-8.19-3.08-15.93-5.26-25.03-4.97-.11,3.29.14,6.64,0,9.94-2.99-3.35-1.33-10.15-1.56-14.89Z"/>
  <path class="cls-20" d="M688.33,96.92c7.65,1.16,15.43,4.7,23.47,3.31-.64,11.87.18,24.41,0,36.4,3.89,4.62,3.89,8.68,0,13.24l-2.53-15.06-59.32-22.59c-2.69.43-12.96,26.26-22.19,29.03-8.5,2.55-33.7-5.89-44.21-5.47-1.92-.86-9.71-11.48-11.63-14.18-10.04-14.15-5.38-21.04-24.73-15.95-38.14,10.02-62.24,1.21-100.57-2.09-6.43-.55-17.15,2.71-21.1-3.33.36-3.36,1.92-3.22,3.13,0l7.82-1.65,5.61-3.95,74.73-11.93c57.96-13.26,115.74-.28,171.52,14.22Z"/>
  <path class="cls-15" d="M356.69,91.95c-.06-.69-2.2-2.91-1.57-3.29,5.23.99,10-1.16,14.87-1.66,63.04-6.45,134.61-15.88,197.11-18.19,39.08-1.45,83.26,20.35,122.24,26.23l-1.02,1.88c-31.67-4.81-85.55-16.87-114.97-16.69-40.23.24-94.75,14.04-136.89,18.35l-7.82,1.65c-1.04.03-2.1-.08-3.13,0-11.32.92-29.39,5.71-39.11,3.31-8.2,4.2-23.3-5.11-29.72-11.58Z"/>
  <path class="cls-15" d="M355.12,93.61c3.4-.28,6.88,2.66,9.51,5.11,5.17,4.82,14.58,15.05,15.52,21.36,1.84,2.89,2.73,4.5-1.7,2.63-7.46-3.15-19.55-11.94-27.25-12.64-13.41-1.22-31.98,6.64-46.14,5.05-4.56-1.05-5.17-3.45-1.56-6.62-4.58-1.03-5.14-3.43-1.56-6.62-4.79-.18-5.33-5.35-1.56-8.27,13.69,2,44.46-8.85,54.75,0Z"/>
  <path class="cls-23" d="M294.12,78.72c1.69,4.58,4.63,9.44,6.26,14.89.68,2.28.85,5.55,1.56,8.27.56,5.41-16.09,9.39-18.77,4.96-5.43-3.22-7.72-17.61-4.69-23.16,3.01-5.41,10.44-5.06,15.64-4.96Z"/>
  <path class="cls-20" d="M386.41,103.53c3.22,6.15-1.67,13.41-1.58,19.85-.34.37-3.71-2.56-4.68-3.31-8.7-6.69-16.73-19.34-25.03-26.47.23-.68,1.58-1.54,1.56-1.65,9.87,2.85,19.85,9.15,29.72,11.58Z"/>
  <path class="cls-20" d="M172.1,477.45c6.04,34.51,22.45,67.51,20.32,103.38-.76,12.79-9.72,43.85-5.43,53.76,2.05,4.72,21.81,25.65,26.6,29.78,13.12,11.3,28.04,16.36,41.93,25.14,7.78,4.92,21.04,15.8,33.75,30.15,21.85,24.68,5.77,12.86,5.77,12.86l-29.78-20.12c-2.04-1.33-6-.75-8.69-1.66-3.36-1.1-6.69-4.5-10.9-2.55-2.03.94-11.4,13.92-12.57,17.44-5.45.12-10.97-2.09-16.57-6.61-7.57-2.44-12.99-6.3-16.28-11.59l-1.56-1.65c-2.92,3.79-5.37,3.22-6.26-1.65l-1.56-1.65c-.25,4.37-1.67,4.03-3.13,0l-1.56-1.65c-1.31,3.31-7.59,7.16-10.95,6.62l-1.56-19.85,2.2-2.97,27.52-.34c2.17-2.05.83-1.43-1.03-3.04-13.26-11.48-27.3-16.95-33.3-37.58l-15.75-165.24c.28-1.97,15.76-.62,18.8-.95Z"/>
  <path class="cls-33" d="M301.94,101.88c.59,2.27,1.04,4.34,1.56,6.62-.16,2.9-2.3,4.89-6.41,5.96,2.11,12.76,4.17,26.05,6.19,39.86,4.07-1.5,6.75-.78,8.04,2.16,1.94,22.79,1.39,40.26,0,62.87-.94,2.59-3.16,4.9-6.65,6.93-2.9,19.74-5.84,39.73-8.96,59.55.01,2.28,3.18,3.01,4.66,3.01-3.29,12.7-7.63,24.33-12.51,36.4-2.88-3.35-4.58-2.04-5.09,3.91-4.85,11.62-11.62,22.32-18.76,32.52,1.9.07,2.93,1.36,3.51,3.29-3.49,5.82-5.32,9.14-9.39,14.89l-4.55,2.68c-8.94-2.61-31.02,15.36-19.22,23.27l-1.26,3.83c-12.57,12.74-20.53,20.47-35.98,29.78l-3-2.45c1.35-10.75,8.09-19.4,14.75-27.15,7.88-6.7,13.07-11.66,16.4-21.69l2.41-6.49c46.08-44.11,61.82-112.22,60.39-175.99l2.9-6.13c-.9-25.42-3.48-51.08-7.75-76.98l1.49-4.09c-4.03-1.15-5.25-9.07-1.56-11.58l18.77-4.96Z"/>
  <path class="cls-27" d="M186.18,700.81l1.56,1.65c.96.21,2.38-.29,3.13,0l1.56,1.65c1.93.75,4.42.84,6.26,1.65l1.56,1.65c11.89,5.54,22.11,10.23,32.85,18.2,7.31,5.42,22.86,18.33,24.68,27.68,2.18,11.21-6.34,21.49-12.16,30.22-2.39-.94-3.32-3.52-2.79-7.73-6.09,1.46-17.22,3.42-15.98-5.5l-.27-3.9c19.12-10.24-25.94-40.19-28.05-36.86-1.08,1.7,2.63,13.67,4.01,16.2,21.18,29.62-17.26,38.31-27.31,9.66-2.2-.48-2.72-3.24-1.56-8.27-1.75-11.19-3.36-29.25,1.56-39.71,2.32-4.92,5.76-7.05,10.95-6.62Z"/>
  <path class="cls-26" d="M209.64,780.23c3.66-.76,27.4,7.89,28.14,9.28v3.95c-13.09,17.01-24.73,29.25-40.66,43.02l-4.71,2.19c-6.45-4.81-11.79-10.95-16.02-18.41l-14.71,6.79c-4.78,2.98-8.09,2.81-9.93-.5l-3.05-2.56c-.77-10.83,1.13-22.4,4.61-32.19,1.4-5.08,10.75-4.63,12.51,0,6.84-.74,12.12-1.74,18.77-3.31.21-5.22,6.08-6.63,9.39-3.31,1.07-5.5,11.67-8.33,15.64-4.96Z"/>
  <path class="cls-55" d="M225.28,388.11c2.81,13.29-6.9,15.58-14.12,23.95-6.23,7.21-14.03,17.17-14.04,27.34-4.68,2.82-9.03,6.1-14.08,8.27-2.47-12.21-9.55-23.47-4.69-36.4l2.58-4.08c14.15-4.09,27.81-10.44,39.74-19.5l4.61.41Z"/>
  <path class="cls-30" d="M311.32,219.35c-.71,11.56-1.8,23.26-3.13,34.74-3.34,11.36-4.85,23.28-7.82,34.74-.65,5.23-6.67,1.09-7.48-.34-1.81-3.2,4.74-32.26,5.71-38.75,1.85-12.32-2.54-28.85,12.72-30.4Z"/>
  <path class="cls-21" d="M175.23,755.41c5.46,9.1,11.8,17.5,19.03,25.2l-.26,4.58c-3.08.98-5.71,2.44-9.39,3.31-2.74-3.53-16.3.04-17.29-4.41-1.4-6.31,4-29.82,6.34-36.95.36,2.29.98,6.29,1.56,8.27Z"/>
  <path class="cls-22" d="M258.14,379.84c-8.97,12.68-14.24,18.85-25.03,29.78-2.83-4.89-8.38-7.74-4.8-14.12.62-1.11,13.29-14.38,14.21-14.81,2.79-1.3,12.25-2.12,15.62-.85Z"/>
  <path class="cls-2" d="M287.86,325.24c-6.41,15.84-11.77,25.41-20.34,39.71l-10.94.84c6.14-6.08,25.99-37.41,24.71-44.46-.52-2.85-5.31-3.78-4.37-7.66,4.16,2.87,11.81,4.69,10.93,11.58Z"/>
  <path class="cls-14" d="M134.55,763.68c.41,2.11.37,1.82,1.56,3.31,1.39,2.01,1.39,3.11,0,3.31l1.56,1.65c3.74,1.73,9.63,9.17,6.26,13.24.91,4.09-15.03,10.67-15.64,9.92,0-8.95-4.57-27.47,6.25-31.43Z"/>
  <path class="cls-51" d="M165.84,791.81c-4.03.44-8.43-.32-12.51,0-.89,3.15-2.25,3.14-3.13,0-2.22-2.05-4.46-4.13-6.26-6.62-3.44-4.76-4.25-8.01-6.26-13.24l-1.56-1.65c-.27-.78.18-2.29,0-3.31,1.55,1.94,8.31,8.19,10.43,9.65,7.02,4.87,21.07,5.44,19.3,15.16Z"/>
  <path class="cls-49" d="M203.38,684.27c-3.9,3.68-24.85,4.61-29.72,3.31-2.08-.56-7.26-9.31-9.39-11.56l39.11,8.26Z"/>
  <path class="cls-40" d="M176.79,475.8c-.17.04-.5,1.31-3.13,1.65l3.13-1.65Z"/>
  <path class="cls-20" d="M278.47,83.68c2.39,7.14,3.29,15.69,4.69,23.16.78,4.16.96,7.76,1.56,11.58l-2.02,3.63,3.5,22.28-1.48,2.22c-1.76.8-3.65.62-5.67-.52-20.46,15.84-40.32,24.31-66.52,26.05-34.09.51-34.44,32.29-34.57,62.13,2.89,31.81,6.04,63.49,9.45,95.05l-3.19,10.73c-12.99,21.08-25.19,43.14-23.38,69.81l-2.83,4.78c-3.06.3-6.3-.21-9.39,0,2.01-20.03-2.76-45.97.1-65.25,1.15-7.78,10.83-19.8,10.71-28.27-.09-6.04-11.14-15.91-10.72-22.92l28.07-130.08c3.18-.36,4.57-3.65,6.26-4.96,1.3-3.97,6.49-8.45,10.06-11.27,24.84-19.59,51.19-35.07,82.5-34.87-.42-5.7-1.76-11.23-4.02-16.58l2.19-3.47c-4.66-15.08-10.5-28.17-18.77-41.36,11.17,3.66,19.69,16.84,23.47,28.13Z"/>
  <path class="cls-44" d="M126.73,374.87c4.89-21.29-20.79-20.79-31.29-33.07,10.73,1.63,21.4,5.35,30.51,11.55,1.54-1.75.71-5.81.77-8.26,2.93,8.83,1.5,20.28,1.56,29.78h-1.56Z"/>
  <path class="cls-15" d="M273.78,96.92c1.59,5.16,4.74,13.59,5.24,18.58.13,1.27,1.64,2.59-.47,3.81-5.13,2.95-24.73,2.63-31.98,4.25-10.03,2.24-53.3,31.57-63.51,39.54-3.77-1.49.46-4.44,1.56-5.8,4.55-5.64,36.31-44.73,35.82-47.74l-40.51-47.37,62.17,35.98,31.69-1.25Z"/>
  <path class="cls-20" d="M747.77,52.24c-6.5,16.71-12.21,34.39-12.31,52.74,1.57,2.57,47.71,8.31,54.95,10.54,2.15.66,5.92,2.94,7.42,4.56.75-.42,1.49-.74,2.21-.69,3.15.22,33.87,46.65,37.24,53.58l-1.91,3.36,6.26,145.6c.76,5.01-2.69,6.9-6.26,3.31l-3.29-4.36c.8-24.67-2.13-48.33-8.79-70.98-9.9-13.33-15.1-22.64-18.53-39.61-.91-16.9-4.18-32.76-9.8-47.6-2.14-13.29-55.74-17.45-58.13-15.37.39,2.12-1.23,3.26-3.13,4.19l-3.1-1.55.83-40.72c-1.99-1.62-2.54-2.95-2.42-5.7,1.37-7.75,3.93-19.06,6.26-26.47-4.25-3.22.94-16.33,6.26-16.55,1.2-2.61,3.5-7.53,6.26-8.27Z"/>
  <path class="cls-15" d="M897.95,139.93c-9.17,6.31-18.66,18.52-28.32,23.82s-23.92,7.22-34.26,12.58c-.7-3.36-33.85-52.27-37.54-56.25-2.17-4.02-2.66-3.43,1.73-2.67,29.31,5.07,62.11,12.39,91.14,19.44,2.59.63,5.4.64,7.25,3.09Z"/>
  <path class="cls-3" d="M863.54,315.31c-21.47,21.31-48.11,33.99-78.22,26.47-3.28,5.04-6-3.73-5.75-6.35.35-3.64,15.65-17.51,19.83-13.51l3.27-1.75c9.3,4.71,20.15,4.12,30.09,2.28l2.62,2.78c2.53-.63,4.39-2.55,6.26-3.31,7.57-3.06,15.24-6.41,21.9-11.58l1.52.81c-.67,1.02-1.82,3.12-1.52,4.16Z"/>
  <path class="cls-43" d="M197.13,836.48c-12.18,10.53-24.96,24.03-42.24,23.16-3.78-.19-3.45-.56-6.26-1.65,5.42.67,2.21-1.8,2.03-4.62-.64-10.62.44-16.93,1.09-26.81,7.19-.17,23.04-10.59,25.57-9.79s11.54,20.24,19.8,19.71Z"/>
  <path class="cls-31" d="M150.2,791.81c1.01-.13,2.1.08,3.13,0,3.25,6.35-.9,13.89-1.54,20.7-.43,4.64.28,9.41-.03,14.04-8.75.21-20.61-15.76-20.48-24.03.06-4.25,14.96-10.19,18.92-10.72Z"/>
  <path class="cls-29" d="M899.52,710.74c1.56.58,3.12,1.03,4.69,1.65l3.13,1.65c.5.17,1.17-.2,1.56,0,3.24,1.62,40.98,20.53,39.11,23.14-1.59-.5-3.36,1.67-3.91,1.67h-28.16c-4.22,0-16.39-13.67-18.99-17.97-3.32-5.48-7.22-12.19,2.57-10.16Z"/>
  <path class="cls-53" d="M158.02,414.58c-1.67-19.54,2.06-35.69,10.14-52.98,6.56-14.04,17.94-23.34,16.29-40.33-4.32-44.61-16.93-85.71-3.77-131.74,3.84-13.44,6.06-13.38,18-17.36,16.48-5.49,36.11-5.42,50.49-11.13,9.76-3.88,24.79-17.61,31.83-19.3,3.58-.86,1.67,3.76,3.74,4.81,1.06.79,1.92,1.62,2.06,2.56,2.4,16.49,4.38,33.97,4.2,50.38,3.2,67.03-14.65,144.79-65.7,188.61-12.39,10.64-31.4,19.41-46.93,23.16-7.98,1.93-12.24,2.51-20.34,3.31Z"/>
  <path class="cls-42" d="M725.87,139.93l3.41,3.35,5.97,41.32c1.41.3,1.35.87,0,1.65v1.65c-5.78.82-11.79,1.03-18.03.64l-2.3-3.94c-.75-7.52-1.36-16.63-3.13-23.16-.02-3.86-.02-7.73,0-11.58.02-4.4-.07-8.83,0-13.24l14.08,3.31Z"/>
  <path class="cls-8" d="M741.52,60.52c-1.88,4.07-4.89,12.18-6.26,16.55-3.77,1.16-3.97,7.69-6.24,9.21-1.77,1.18-6.93-.08-7.6-1.2-1.98-3.32,2.44-26.15,4.71-30.07,3.35-5.77,16.61-3.09,15.38,5.51Z"/>
  <path class="cls-52" d="M733.7,151.51c4.4,8,6.04,25.06,1.56,33.09-4.03-13.29-8.53-30.8-9.39-44.67-.74-12.04,1.04-24.58,3.13-36.4l5.6,3.38-.9,44.6Z"/>
  <path class="cls-21" d="M266.82,709.69l5.66,2.98c4.99,3.73,15.04,5.37,23.49,19.01.31.5-.2,1.11-.75.89-31.84-13.13-9.66-5.31-39.8-21.63-.77-.42-13.01-4.3-3.1-4.18,0,0,5.78-.67,14.49,2.93Z"/>
  <path class="cls-20" d="M566.32,836.47c-7.43-7.66,30.54-22.8,34.42-23.97,8.84-2.67,46.46-13.11,41.89,6.18-3.13,13.22-10.39,4.16-17.79,3.06-8.17-1.21-18.89.59-26.93,2.66-11.33,2.92-20.5,10.73-31.59,12.07Z"/>
  <path class="cls-21" d="M186.18,867.92c9.36,7.37,12.38,53.5-3.5,49.34-4.58-1.2-14.27-12.62-15.01-17.44-.67-4.37,6.83-14.28-.26-13.71,5.62-4.53,13.86-12.74,18.77-18.2Z"/>
  <path class="cls-47" d="M303.5,108.5c.52,2.24,1.09,4.3,1.56,6.62,2.87,13.99,5.04,27.05,6.26,41.36l-10.89,1.59c-1.66-9.88-2.26-19.89-3.89-29.8s-9.25-15.98,6.96-19.78Z"/>
  <path class="cls-13" d="M226.85,770.3c5.45,6.69,13.66,1.58,20.33,1.66l-1.56,11.57c-1.54,2.31-3.07,4.39-4.69,6.62-.88,1.2-2.21,2.12-3.13,3.31-7.97-6.11-21.02-5.71-28.16-13.24.26-5.28,12.83-12.3,17.21-9.93Z"/>
  <path class="cls-37" d="M735.26,187.91l1.56,3.31,3.44,1.7c11.32,44.03,29.48,91.55,59.34,125.04l-.21,3.96c-4.2,3.66-18.17,11.06-17.29,17.12.16,1.1,3.11,1.91,3.21,2.74.22,1.67-3.21,10.37-4.68,12.42-1.21,1.69-6.78,8.11-6.27.81-4.12-.24-3.93-1.93,0-3.31l1.56-1.65c-1.36-.56-1.36-1.11,0-1.65l1.56-1.65c-1.34-.47-1.32-1.02,0-1.65l1.56-1.65c-1.35-.54-1.35-1.09,0-1.65l1.56-1.65c-5.29,1.83-13.83-8.79-17.62-13.6-5.02-6.38-14.28-21.72-12.11-29.42l-3.89-1.35c-7.04-22.02-13.18-44.19-18.42-66.5-4.62-.6-7.48-1.3-8.97-6.6-.09-.54.08-1.12,0-1.65l.26-2.33c10.21.64,9.45-8.72.15-7.82l-1.98-3.09c-1.06-7.87-2.33-15.13-3.13-23.16,7.29,2.68,14.8-2.41,20.34,3.31Z"/>
  <path class="cls-28" d="M750.9,297.11c1.49,5.5-3.77,16.05-9.39,14.89-10.48-29.35-16.97-58.41-21.9-89.34,2.72,2.8,8.67,2.47,10.94,4.15,2.57,1.9,6.98,26.62,8.61,32.25,3.21,11.07,7.7,27.92,11.73,38.06Z"/>
  <path class="cls-38" d="M780.63,340.13l-1.56,1.65c-.19.49.2,1.21,0,1.65l-1.56,1.65c-.2.45.2,1.21,0,1.65l-1.56,1.65c-.18.47.17,1.17,0,1.65l-1.56,1.65c-.27.86.24,2.36,0,3.31-.61,2.38-2.78,4.73-1.56,8.27-18.46-11.92-24.01-30.92-31.29-51.29l9.39-14.89c2.59,6.52,10.92,22.36,15,27.98,2.5,3.45,14.52,13.97,14.73,15.03Z"/>
  <path class="cls-39" d="M718.05,207.77c9.54-1.35,11.54,1.16,12.44,10.87.45,4.9-8.86,1.35-10.87,2.37-.75-4.86-.97-8.79-1.56-13.24Z"/>
  <path class="cls-5" d="M907.34,714.05c-1.15-.39-2.62.03-3.13-1.65,1.08.42,2.45.15,3.13,1.65Z"/>
  <path class="cls-19" d="M187.74,702.47c-.72-.16-1.34-.89-1.56-1.65.72.06,1.4.88,1.56,1.65Z"/>
  <path class="cls-19" d="M192.43,704.12l-1.56-1.65c1.18.45,1.46,1.61,1.56,1.65Z"/>
  <path class="cls-19" d="M200.26,707.43l-1.56-1.65c.83.37,1.27,1.52,1.56,1.65Z"/>
  <path class="cls-20" d="M284.73,118.42c3.96,25.19,4.94,47.44,7.38,72.47.26,2.65,1.8,6.88-1.12,8.6-.8-16.83-3.9-36.11-6.26-52.94-1.14-8.15-3.63-16.13-4.54-24.18-.61-5.42.29-3.94,4.54-3.95Z"/>
  <path class="cls-20" d="M226.85,770.3c-4.69,3.74-11.77,7.5-17.21,9.93s-10.45,3.31-15.64,4.96c-8.33-9.53-15-16.94-18.77-29.78,6.16,7.1,12.55,17.02,23.15,13.84,15.68-4.7,4.04-15.32.74-23.4-2.66-6.52-4.27-13.06-3.55-20.23,4.06-4.25,43.19,21.26,38.83,36.86-.81,2.91-5.23,5.96-7.56,7.81Z"/>
  <path class="cls-32" d="M137.68,771.96c-.04-.11-1.11-.38-1.56-1.65l1.56,1.65Z"/>
  <path class="cls-53" d="M835.38,325.24c-10.36,2.59-27,3.26-35.98-3.31-23.6-17.26-58.43-100.66-62.57-130.71l-1.56-4.96c-.02-.55.03-1.1,0-1.65-.55-11.09-2.07-21.91-1.56-33.09.12-2.75-.11-5.54,0-8.28,18.52,2.89,52.34-1.2,63.89,17.65,9.73,15.89,6.56,45.85,14.69,65.54,4.31,10.45,12.78,16.46,16.1,27.64,6.24,21.01,6.12,49.15,7.01,71.17Z"/>
  <path class="cls-20" d="M229.55,181.68c9.55-2.05,22.4,3.1,30.62,8.22,48.15,30.04-34.45,38.16-48.89,26.89-10.72-8.37,8.47-33.01,18.27-35.11Z"/>
  <path class="cls-20" d="M222.15,239.21c3.02,10.61-19.01,33.49-25.91,23.26-6.88-10.19,16.77-26.89,25.91-23.26Z"/>
  <path class="cls-54" d="M736.82,191.22c-1.57-.53-1.38-1.92-1.56-3.31-.07-.53.02-1.11,0-1.65,2.16.8,1.33,3.24,1.56,4.96Z"/>
  <path class="cls-48" d="M779.06,341.78c.27-.7.95-1.26,1.56-1.65.23,1.14-.46,1.84-1.56,1.65Z"/>
  <path class="cls-48" d="M777.5,345.09l1.56-1.65c-.41.93-1.44,1.38-1.56,1.65Z"/>
  <path class="cls-48" d="M775.93,348.4l1.56-1.65c-.42.92-1.48,1.43-1.56,1.65Z"/>
  <path class="cls-48" d="M774.37,351.71l1.56-1.65c-.33.92-1.5,1.44-1.56,1.65Z"/>
</svg>