<?xml version="1.0" encoding="UTF-8"?>
<svg id="Layer_1" data-name="Layer 1" xmlns="http://www.w3.org/2000/svg" viewBox="0 0 1000 616.73">
  <defs>
    <style>
      .cls-1 {
        fill: #554867;
      }

      .cls-2 {
        fill: #474747;
      }

      .cls-3 {
        fill: #a5a5a5;
      }

      .cls-4 {
        fill: #453859;
      }

      .cls-5 {
        fill: #606060;
      }

      .cls-6 {
        fill: #224745;
      }

      .cls-7 {
        fill: #5c516f;
      }

      .cls-8 {
        fill: #358713;
      }

      .cls-9 {
        fill: #47a518;
      }

      .cls-10 {
        fill: #0a4d49;
      }

      .cls-11 {
        fill: #807e77;
      }

      .cls-12 {
        fill: #655573;
      }

      .cls-13 {
        fill: #333332;
      }

      .cls-14 {
        fill: #595851;
      }

      .cls-15 {
        fill: #534766;
      }

      .cls-16 {
        fill: #babcbe;
      }
    </style>
  </defs>
  <path class="cls-16" d="M12.65,34.69c6.28-9.33,26.63-9.98,37.99-11.37,125.27-15.29,691.05-12.31,817.59-7.9,18.92.66,114.6,2.01,124.52,11.95,5.7,5.71,5.93,42.36,6.23,51.81-2.49,6.59-7.68,3.35-10.35-2-3.52-22.81-19.78-19.66-29.2-1.52-3.02,22.79-15.71,18.43-20.46-.34-3.89-.46-3.71-2.38,0-3.87l-1.94-5.8c-1.69-.55-1.67-1.2,0-1.93,3.02-3.59,8.15-5.84,15.38-6.76,41.28-20.14,28.87-28.49-37.21-25.07-27.1-2.16-26.89,4.31.64,19.4l-.1,4.69-5.43,3.06c-118.88-11.63-659.61-5.98-780.86,1.22-4.83.29-9.59-1.01-14.19-2.35-9.45-.42-39.36-1.03-46.27,3.94-1.83,1.31-5.1,25.29-4.06,28.95l2.49,7.66c-2.68,27.94-4.55,55.81-5.61,83.62l-2.7,3.52c1.86,7.15,3.24,20.64-6.77,19.69l-18.84-.31c-10.05,1.28-2.27,118.09,1.36,132.88.39,8.47,1.57,41.11-1.93,45.99-3.2,4.48-5.46,6.43-8.67,1.02-5.8-4.27-5.59-13.05,0-17.41l-1.94-11.61c-5.62-8.29-5.53-18.66,0-27.09l-1.94-13.54-2.79-16.83c-4.76-89.37-6.41-177.27-4.95-263.7Z"/>
  <path class="cls-13" d="M171.39,549.32c9.41-.38-6.03,9.95-10.37,12.81l.69,2.67,9.79-3.09c38.13.6,284.3,2.27,322.24,5.02,33.89-4.27,277.19-6.02,311.79-5.24,30.54-2.27,60.82-2.46,90.86-.56,2.37-5.97,14.68-5.5,17.42,0l7.74-1.93c2.17-3.23,21.68-7.51,25.76-7.44l3.27,3.57,2.84-3.27c3.23-1.89,32.07,29.58,24.26,38.1-4.35,4.93-29.64,6.96-37.77,7.72-39.24,3.69-78.81,2.79-118.15,3.81-108.65,2.82-640.9,6.73-749.11-1.85l1.83-4.59c14.75-.67,28.49-4.27,41.22-10.79l23.46,1.99c15.46-.71,21.06-1.32,18.67-17.56-20.59-1.35,3.29-23.57,13.55-19.35Z"/>
  <path class="cls-3" d="M938.97,75.32c6.69,1.37,5.93,14.53,12.57,11.59,3.57-1.58,2.77-9.2,4.43-12.99,5.02-11.52,21.27-24.62,31.45-11.22,5.01,6.59,2.26,18.16,11.57,16.49.08,2.57-.06,5.16,0,7.74-1.42,67.84-5.84,137.24-11.45,204.94l-4.04,2.07c-7.19-2.04-9.11-1.33-14.45,5.72l-4.91.09c-8.9,1.05-7.86-11.33-2.08-16.02,9.69-3.27,15.37-10.98,17.56-20.74-1.86-.14-1.86-1.43,0-3.87l-3.48-2.58c6.17-19.29-7.49-14.93-15.01-1.82l-4.74.53-1.94,1.93c1.49.63,1.27,2.78,0,3.87l-2.54,6.68c.26,10.94-2.77,14.52-9.07,10.73-1.07-.93-1.91-1.87-1.95-2.84-.16-3.78.59-8.63,1.29-12.44,2.19-11.83,7.17-24.62,11.54-35.82,8.72-27.37,10.41-55.6-9.28-77.84l-3.54,5.12c-.55,1.69-1.2,1.66-1.94,0l-3.3-3.53c1.74-24.09,1.59-48.25-.45-72.46l3.75-3.34Z"/>
  <path class="cls-2" d="M20.4,315.22l1.94,13.54c.1,9.01-.11,18.08,0,27.09l1.94,11.61c.08,5.78-.25,11.64,0,17.41,6.84,9.87,5.81,23.45,4.01,34.94l1.8,1.82c.55,9.76,17.36,24.47,23.23,13.54,10.44,1.94,7.04,22.49-3.87,15.48l-2.32,4.02c-6.12.8-9.14,7.06-9.06,18.79l-4.11,2.34c1.26,7.58,1.91,15.89,0,23.22-.55,1.69-1.2,1.66-1.94,0l-3.91.04c-5.86-5.66-7.81-.65-5.83,15.05l-3.81,2.33c-2.14-7.65-3.15-18.06-3.86-26.13-6.57-74.24-9.53-148.24-11.55-222.56C1.25,201.23-3.8,129.16,5.16,62.99c1.14-8.43,2.89-21.46,7.5-28.3,3.21,2.01,1.94,7.34,1.97,10.61.95,90.16,4.81,179.92,5.77,269.92Z"/>
  <path class="cls-2" d="M977.69,589.95c-1.07-8.79-19.53-34.5-27.1-34.82l-1.82-5c11.88-43.82,17.93-88.91,18.16-135.27-3.86,2.53-11.47,4.75-14.85,1.28-3.28-3.37-2.84-23.47,4.32-23.52,3.22,2.15,4.79,6.21,4.71,12.19,6.6-6.74,14.69-7.04,23.01-3.92.81-16.58,3.49-32.81,8.02-48.68l4.92-.21c-3.73,69.22-2.17,140.84-11.86,209.67-1,7.1-3.17,23.4-7.5,28.3Z"/>
  <path class="cls-8" d="M32.01,499.02l2.52,3.6c-2.72,36.73.72,53.78,38.85,61.88,26.31,5.59,58.46,10.48,84.46,4.17.39.57,2.75.74,3.49,3.19,4.54,15.12-7.64,17.24-19.87,18.16-8.5.64-19.53-2.5-25.17-1.98-2.65.25-9.6,5.3-14.55,6.78-9.87,2.94-19.8,1.56-29.07,4.8-7.54-.6-39.4-2.28-42.72-7.12-6.09-8.86-11.26-62.96-11.48-76.07-.08-4.59-.96-18.72.87-21.37,3.23-4.69,12.6-.24,12.68,3.96Z"/>
  <path class="cls-2" d="M998.98,94.67v162.52c.04,11.58-.13,23.25,0,34.82-.82,4.56-7.41,7.54-11.62,5.8-2.28,6.05-7.78,1.29-3.87-3.87l15.49-207.01c.06,2.58-.05,5.16,0,7.74Z"/>
  <path class="cls-8" d="M998.98,292.01c.26,23.21-.72,37.49-1.94,59.98-10.65,13.56-6.32,28.47-7.74,43.55-1.56,16.54-10.06,5.24-18,7.07s-15.83,21.16-14.91-9.99c-6.36-2.74-.31-18.43,5.81-17.41l3.95,2.37c-1.57,8.38-.86,22.16,9.29,12.8,5.19-4.79,16.52-77.07,9.85-88.77l2.07-3.78c3-3.36,6.86-6.2,11.62-5.8Z"/>
  <path class="cls-12" d="M998.98,257.18c-.19-54.1.96-108.43,0-162.52v162.52Z"/>
  <path class="cls-11" d="M915.74,55.97c2.2-6.42,21.29,1.36,21.29,7.74v1.93l1.94,5.8c.1,1.28-.04,2.59,0,3.87.69,20.86,3.94,60.29,0,79.32l3.14,3.49c-8.06,12.46-18.5,73.47,9.39,44.74l4.89.13c.94.27,1.82.62,2.46,1.22,1.5,1.4-5.96,37.56-16.52,34.74.16,17.81-.96,35.49-3.36,53.04.95,4.16,1.81,8.32,2.39,12.53s1.08,8.35,1.04,12.51c-.5,58.06-4.6,116.63-10.03,174.42-1.29,13.68-4.03,10.6-1.71,9,8.39-5.79,32.54,36.26-1.52,38.35,2.85,6.71,1.62,21.79-6.61,14.37-4.75,5.7-28.37,6.49-32.91,0,2.08,2.72,4.34,5.3,6.78,7.74-63.78,4.51-337.94,5.8-402.64,5.8-36.65-2.37-280.94-5.83-316.61-10.39-4.53,4.68-8.75,7.69-15.41,8.45-11.19-1.03,4.66-7.56,7.91-10.66,4.07-3.88,1.61-4.57,1.77-4.82-.65-3.1-.03-6.88,1.85-11.35-7.5-8.65-64.9-4.45-78.33-2.66-4.41-3.73-4.14-10.06.8-18.99-2.8-3.61-4.03-6.8-3.69-9.56l3.46-3.48c10.42,2.53,20.47,2.68,30.13.45-37.48-2.84-40.61-27.77-43.94-60-2.72-35.42-5.92-70.75-9.61-106.01l-1.63,1.05c1.44,4.88.41,11.6-5.51,11.27-1.95-8.12-1.42-16.88,0-25.15-1.05-3.01-2.03-6.04-2.76-9.13s-1.38-6.09-1.52-9.14c-1.77-40.47-2.61-82.85-1.53-121.03,1.09-31.01-.52-64.68,5.81-94.8-1.6-16.59,3.13-33.39,23.01-32.76l27.33-.13c91.17-10.54,616.29-10.48,708.61-7.82,27.12.78,65.83,1.41,91.87,5.88Z"/>
  <path class="cls-3" d="M64.92,324.9c-1.79,21.83-5.32,43.51-10.62,65.05.29,18.69,3.76,40.53,16.19,53.72,1.76,8.2,3.78,15.69,6.04,22.47.55-1.69,1.2-1.66,1.94,0,5.72,1.49,5.38,9.9,0,11.61l1.94,3.87,4.08,3.22c-.22,7.03.35,13.69,1.73,20v1.93c-1.22,6.55-18.57,1.84-21.41-1.7l-8.65-35.41c-4.07-6.76-6.31-13.09-6.72-19,10.31-3.53,5.33-7.7,3.87-15.48-1.63-.17-2.28-2.75-1.94-7.74l-4.19-.59c-4.84-17.89-8.42-21.85-10.76-11.89l-4.41.87c-.3,2.3-.95,4.24-1.94,5.8-5.22,3.43-3.7,1.91-3.88-2.87-.43-11.41-1.45-22.56-1.93-33.89,5.2.03,5.46-2.28,5.92-6.67,3.67-35.21-1.02-53.79-3.96-87.19-1.37-15.48-2.65-34.93-1.94-50.26.34-7.28,2.3-30.64,4.14-36.5,2.26-7.2,23.52-.25,28.88-4.03,3.05-2.15,1.67-10.7,1.81-14.64,3.21,2.01,1.94,7.34,1.97,10.61.45,43.11,3.16,85.78,3.84,128.69Z"/>
  <path class="cls-3" d="M937.03,63.71c-1.14-.07-15.79-6.79-21.29-7.74l-24.3-17.4c-2.33-3.68.49-8.14,4.37-9.29,7.14-2.12,57.29-1.33,67.42-.46,23.47,2,21.86,10.12,5.69,23.24-7.98,6.47-21.73,12.31-31.89,11.65Z"/>
  <path class="cls-3" d="M115.25,57.91c-34.05,3.94-42.55-4.18-50.33,32.89-3.93-5.13-2.44-29.23,1.85-32s41.49-4.34,48.48-.89Z"/>
  <path class="cls-1" d="M22.33,328.77c-3.37-2.63-1.89-9.3-1.94-13.54,3.37,2.64,1.89,9.3,1.94,13.54Z"/>
  <path class="cls-1" d="M24.27,367.46c-3.25-2.1-1.89-7.96-1.94-11.61,3.25,2.11,1.88,7.96,1.94,11.61Z"/>
  <path class="cls-12" d="M938.97,71.45l-1.94-5.8c2.58.96,1.78,3.69,1.94,5.8Z"/>
  <path class="cls-9" d="M49.44,450.65c13.58,13.81,13.34,34.58,18.34,52.29,1.56,1.99,14.66,3.36,18.44,3.82.56-.83,1.21-.79,1.94,0,1.09-3.69,2.78-3.71,3.87,0,13.78,8.16,5.05,14.03,1.95,25.14,12.14-2.84,79.71-6.97,83.02,5.14,1.68,6.15-3.7,9.23-5.6,12.28l-19.32,12.58c2.34,1.98,4.04,4.29,5.77,6.77.05,5.92-2.66,4.92-6.77,5.82-18.48,4.02-85.71-4.02-102.33-13.84-19.92-11.77-18.88-34.91-18.8-55.08.01-3.6,2.08-6.21,2.07-6.55h1.94c2.04-6.94,1.09-15.67,0-23.22.56-6.37,2.02-21.22,7.82-24.18,3-1.53,6.01-.4,7.67-.97Z"/>
  <path class="cls-14" d="M979.62,262.99c-1.09,5.53-.25,8.65-4.16,14.23-5.66,8.07-19.83,9.83-11.33,22.53,1.41,4.62.07,9.83-3.99,15.63-1.56,7.98-4.74,13.08-9.56,15.32-4.21,10.5-.08,28.64,14.1,24.15l3.32,2.93c4.37,3.42.15,18.07-5.81,17.41-2.44,6.68-4.34,9.58-5.81,17.41-1.29,6.9-3.15,13.64-1.93,21.29,8.31,1.13,13.31-4.09,18.39-9.67-3.01,34.37-5.58,70.56-10.93,105.15-2.32,15.02-4.12,32.51-11.34,45.74-3.97-.17-11.79,3.16-16.72,3.63-4.21.4-8.41-.14-12.31.24l-7.74,1.93c-5.73.47-11.68-.41-17.42,0l-13.55-.02c.47-1.74,6.26-7.72,6.78-7.72h32.91c8.03,0,2.33-15.23.98-19.34,25.4,4.39,26.75-25.65,3.78-30.24,7.22-70.22,10.76-140.91,11.7-211.61.47-5.83,1.76-10.34,3.87-13.54,9.64-3.26,5.26-13.49,11.62-17.41-.07,19.96,8.32,20.61,25.17,1.93Z"/>
  <path class="cls-2" d="M493.74,566.73c-39.84,0-292.8,1.69-332.02-1.93l14.42-12.74c21.96,2.67,252.05,6.51,274.06,8.86,13.79,1.47,31.43-.5,43.55,5.81Z"/>
  <path class="cls-4" d="M921.55,559l-7.74,1.93c.4-.03,4.17-1.59,7.74-1.93Z"/>
  <path class="cls-9" d="M964.14,299.74c2.92-4.09,7.97-10.15,12.96-11.29,5.87-1.34,3.62,1.11,6.4,5.49,3.17,4.99,3.66,3.6,3.87,3.87,5.7,7.2,4.25,17.23,3.85,26.1-.45,10.05-7.52,65.52-13.62,69.58-.79.52-10.97,4.34-11.53,4.09-6.22-2.8-3.3-16.54-3.87-22.38,1.89-5.17,3.33-12.61,5.81-17.41l-2.37-3.51c-15.17-.12-20.07-10.48-15.05-23.57,3.08-9.9,7.43-22.37,13.55-30.96Z"/>
  <path class="cls-13" d="M956.39,203.01c-16.74,21.42-27.97,12.59-27.1-12.53.52-15.05,7.43-24.99,9.68-35.84h1.94c6.7-7.38,14.5,11.07,16.43,17.2,2.55,8.11,5.23,26.46-.94,31.17Z"/>
  <path class="cls-2" d="M942.84,278.46c-.75,4.47-.64,9.98-3.87,13.54.17-13.03-2.53-44.78-.09-54.82.52-2.14,5.51-2.24,7.76-4.22,6.93-6.12,8.79-21.23,9.74-29.95,1.72-15.67,2.69-42.16-15.49-48.37.25-8.67-.36-17.45,0-26.14.1-2.35-1.46-7.19,1.92-6.74-2.94,24.55,17.82,40.08,19.44,62.79,2.24,31.49-14.21,62.94-19.42,93.91Z"/>
  <path class="cls-9" d="M979.62,259.12c-7.38,18.14-30.42,23.72-23.23-1.93-.78-.6-.75-1.25,0-1.93,3.2-6.1,10.37-16.28,18.31-15.52,11.03,1.05,5.55,14,4.92,19.39Z"/>
  <path class="cls-8" d="M979.62,259.12c-.15,1.26.23,2.72,0,3.87-8.25,19.62-32.3,28.43-25.17-1.93.27-1.17-.35-2.98,0-3.87h1.94c-2.04,23.7,13.34,11.5,23.23,1.93Z"/>
  <path class="cls-15" d="M956.39,257.18h-1.94c.31-.78,1.63-1.34,1.94-1.93v1.93Z"/>
  <path class="cls-8" d="M32.01,415.83l3.66,2.15c-.5,8.81,8.5,14.67,15.7,9.46.85,3.04,1.29,4.27,1.94,7.74,2.69,12.48-8.2,7.99-14.9,4.25-8.42-4.7-9-8.49-8.33-17.8.27-3.69,1.29-3.86,1.94-5.8Z"/>
  <path class="cls-10" d="M33.95,475.8c4.32,6.85.91,17.28,1.92,25.15l-1.92-1.93c.47-7.65-.66-15.6,0-23.22Z"/>
  <path class="cls-13" d="M64.92,350.05c1.16-3.89,3.06-6.82,1.97-12.22l7.7-9.05c7.61,44.06,6.12,90.08,13.8,134.22,5.45,31.33,13.26,32.98,44.28,37.97-2.5,13.48-29.52,6.89-40.64,5.79-1.27-.12-2.61.15-3.87,0l-1.94-1.93c-9.15-7.05-4.64-13.92-5.81-23.22l-1.94-3.87c-.35-3.81.23-7.78,0-11.61-.82-.51-1.47-1.8-1.94-3.87-3.08-2.34-3.81-6.19,0-7.74l-1.94-7.74c-5.84-4.21-4.58-6.86,0-11.61-4.1-1.98-5.3-7.77-3.61-17.37-15.76-2.62-13.33-29.95-11.88-42.6-3.72-5.13,2.15-19.94,5.81-25.15Z"/>
  <path class="cls-9" d="M478.25,518.37c15.59,2.58,10.41,14.54-.22,21.31-23.51,14.97-67.41,8.57-83.02-15.5.02-.67-.15-1.47,0-1.93l1.94-1.93c2.89-1.83,5.1-1.26,7.74-1.93l3.87-1.93c.63-.08,1.3.05,1.94,0,.68-1.12,1.43-2.14,2.42-2.77,2.54-1.62,54.55-.98,60.29.47l5.04,4.23Z"/>
  <path class="cls-3" d="M410.5,516.43l-248.77-5.78,693.03-1.96c3.14,2.8-2.19,1.83-3.86,1.92-14.84.81-29.78,2.95-44.55,3.87-35.75,2.23-280.89.67-316.48,3.89-1.33,4.85-5.21,4.85-11.62,0-20.78-1.44-47.37-3.68-67.75-1.93Z"/>
  <path class="cls-8" d="M489.87,518.37c1.32.19,9.15,1.78,9.51,2.11.58.5,1.93,10.79,1.16,13.23-5.34,17.01-35.21,20.48-50.11,19.24-15.57-1.3-56.11-9.35-55.42-28.77,7.22,2.97,12.29,8.7,19.61,12.32,16.45,8.15,34.32,9.53,51.96,4.06,10.6-3.29,25.96-12.8,11.67-22.19,3.75.26,8.08-.51,11.62,0Z"/>
  <path class="cls-5" d="M64.92,350.05c-3.13,10.52-5.14,12.82-5.81,25.15-5.19,7.84,6.39,56.81,9.51,59.23,2.06-1.12,3.96-1.12,5.98.75.04,3.86-.1,7.75,0,11.61l1.94,7.74c.08,2.57,0,5.16,0,7.74,1.12,1.23,1.45,2.96,0,3.87l-1.91,3.86c-3.89-25.92-22.94-47.39-23.31-74.58-.24-17.3,8.84-33.52,11.21-48.73,1.14-7.3-1.48-15.61,2.4-21.78.13,8.36-.09,16.79,0,25.15Z"/>
  <path class="cls-7" d="M408.56,516.43c-.29.03-2.23,1.51-3.87,1.93l3.87-1.93Z"/>
  <path class="cls-7" d="M395.01,522.24c.33-1.02,1.1-1.41,1.94-1.93l-1.94,1.93Z"/>
  <path class="cls-9" d="M51.37,427.44c.15,5.72,1.44,6.08-4.86,5.91-9.7-.26-16-7.65-14.5-17.52,8.41-25.39,16.23.42,19.36,11.61Z"/>
  <path class="cls-4" d="M78.47,466.13h-1.94v-3.87c1.86.51,1.84,2.23,1.94,3.87Z"/>
  <path class="cls-4" d="M80.41,481.61c-.03-.21-1.62-.46-1.94-3.87l1.94,3.87Z"/>
  <path class="cls-4" d="M88.15,506.76c-.64-.08-1.3.08-1.94,0v-1.93c.72.55,1.31,1.28,1.94,1.93Z"/>
  <path class="cls-6" d="M950.59,330.7c-2.14,17.49,7.56,21.04,23.23,19.37-.7,3.05-4.54,5.26-5.81,7.72-14.3,5.66-22.99-3.72-21.13-18.24.58-4.56,2.92-6.3,3.71-8.85Z"/>
  <path class="cls-2" d="M59.12,375.2c-.52,9.57-.91,30.1,6.74,36.8,3.21,2.81,8.06,1.4,8.67,1.97.77.73.04,17.85.08,21.2-2.38,1.19-4.44,5.11-7.81,3.02-5.92-3.68-13.46-54.33-7.68-62.99Z"/>
  <path class="cls-4" d="M76.54,454.52c-2.91-1.34-1.87-5.19-1.94-7.74,2.92,1.35,1.86,5.2,1.94,7.74Z"/>
</svg>