<?xml version="1.0" encoding="UTF-8"?>
<svg id="Layer_1" data-name="Layer 1" xmlns="http://www.w3.org/2000/svg" viewBox="0 0 1000 1000">
  <defs>
    <style>
      .cls-1 {
        fill: #dadad9;
      }

      .cls-2 {
        fill: #4c4c38;
      }

      .cls-3 {
        fill: #4f4e3a;
      }

      .cls-4 {
        fill: #b4b59c;
      }

      .cls-5 {
        fill: #353524;
      }

      .cls-6 {
        fill: #dbdbdb;
      }

      .cls-7 {
        fill: #fefbe9;
      }

      .cls-8 {
        fill: #dadbdb;
      }

      .cls-9 {
        fill: #89895c;
      }

      .cls-10 {
        fill: #d9dad9;
      }

      .cls-11 {
        fill: #595851;
      }

      .cls-12 {
        fill: #babcbe;
      }

      .cls-13 {
        fill: #757470;
      }
    </style>
  </defs>
  <path class="cls-2" d="M595.74,27.56l8.34-8.35c4.13-1.82,7.82-3.91,12.52-4.17l12.52,4.17c1.36.24,2.88-.31,4.17,0l8.34,4.17c1.29.36,2.89-.37,4.17,0l8.34,4.17c1.27.4,2.92-.41,4.17,0l8.34,4.17c1.23.44,2.94-.45,4.17,0l8.34,4.17c4.08,1.54,8.33,2.52,12.52,4.17l25.03,12.52c1.22.47,2.99-.49,4.17,0l25.03,16.7c3.15,1.6,8.15,1.78,12.52,4.17l8.34,8.35c1.03.61,3.16-.62,4.17,0l8.34,8.35c.92.66,3.28-.67,4.17,0l12.52,12.52c.78.69,3.45-.7,4.17,0,5.46,4.03,6.99,10.37,8.34,16.7.2,1.36-.17,2.8,0,4.17,1.88,5.07,1.88,9.25,0,12.52-8.6,2.19-15.02-5.15-19.27-22.02l-21.07,46.45-9.72.61c-14.12-8.86-10.88-26.37,9.72-52.54-.41-1.77-27.36-20.85-29.37-18.88-5.48,23.73-19.13,58.67-41.12,29.01,34.59-53.88,19.9-64.57-4.25-1.61l-10.07-1.9c-1.17,3.58-2.56,3.53-4.17,0-13.04-9.63-14.32-25.78-3.84-48.47,2.47-18.56-72.81-41.9-74.73-11.11.52,17.06-3.89,28.57-13.21,34.53,3.37,15.91-18.22,23.5-32.29,24.3-13.83.79-60.41-9.78-46.98-28.48l-9.16-8.82c3.11-54.66-23.77-53.62-70.19-49.25-86.89,8.18-167.11,47.4-235.36,98.54,13.01,9.01,27.89,16.38,44.63,22.1,9.09,7.94,5.4,18.58-5.28,16.73-3.06,6.95-8.04,17.28-16.69,12.52-4.23,18.75-11.19,28.49-20.86,29.22l-12.66,6.61c-17.01-8.85-33.96-14.77-50.88-17.78-33.22,25.26-105.83,180.52-94.4,209.66,14.97,6.2,30.25,11.47,45.87,15.8l-.58,15.28c11.67,3.16,11.07,16.88,0,20.87-1.57,16-7.63,17.96-23.02,17.55l-31.33-1.98c-5.88,32.95-3.2,70.15,12.77,99.6,24.64,29.22,38.47,62.22,5.48,89.66.29,18.83,9.04,36.96,26.24,54.36,11.82,14.79,13.72,27.17,5.7,37.16,6.09,1.63,9.47,8.35,10.16,20.16,80.58,118.04,242.27,247.96,388.21,171.53l11.15,2.74c78.81,59.52,169.1,23.91,245.86-21.85,3.75,3.72,7.77,4.93,12.15,2.73-2.73-8.17,1.5-9.7,8.34-4.17l4.17-4.17c1.17-3.71,2.56-3.65,4.17,0l8.34-8.35c1.4-3.61,2.79-3.61,4.17,0l8.34-8.35c-1.86-11.35-.32-11.44,8.34-4.17l-1.65-9.32c38-31.81,75.01-66.7,104.77-106.85,15.89-21.44,22.97-39.42,30.39-63.32-10.7-4.71-10.7-7.83,0-12.52-2.45-1.59-2.45-4.37,0-8.35-8.09-2.39-8.15-6.08,0-8.35l4.17-8.35c-8.03-2.37-8.14-6.12,0-8.35l4.17-4.17c-9.8-7.82-8.44-14.8,4.17-16.7l4.17-4.17c-3.62-1.4-3.62-2.79,0-4.17l4.17-4.17c-5.06-13.48-1.26-20.96,12.52-25.04l4.17-4.17c-3.59-1.17-3.53-2.57,0-4.17l4.17-4.17c-4.55-8.92-1.51-14.97,8.34-16.7l4.17-4.17c-3.61-1.38-3.6-2.77,0-4.17l4.17-4.17c-3.59-1.09-3.51-2.48,0-4.17l-5.55-12.89c16.79-108.91-12.66-235.59-78.45-323.05l.56-10.5c2.08-1.92,4.86-1.92,8.34,0,64.94,43.39,106.81,283.71,80.98,354.43-13,35.59-59.51,87.18-59.38,127.69.04,11.97,9.87,24.06,6.83,36.46s-46.31,71.59-57.52,84.69c-72.78,84.96-235.76,198.38-351.5,159.45-12.95-4.35-46.97-28.14-51.28-28.14-7.58,0-14.72,13.24-25.82,15.89-72.52,17.31-113.54,12.77-179.32-19.21-66.39-32.28-164.29-111.28-198.15-177.42-8.21-16.04-10.82-33.4-18.42-48.36-10.21-20.08-40.37-43.27-34.2-68.19,3-12.13,23.88-24.99,23.9-38.66.01-12.17-15.28-21.94-21.4-32.58-53.74-93.53,6.77-307.23,71.84-388.91,19.96-25.05,38.37-39.42,60.65-68.72C213.85,55.89,418.56-23.11,509.25,16c6.77,2.92,11.28,10.14,19.71,13.67,23.36,9.79,44.26,7.73,66.77-2.11Z"/>
  <path class="cls-13" d="M908.64,223.75c-2.78-.03-5.56.04-8.34,0-.5,3.37-1.95,3.14-4.17,0-14.68,15.94-47.81-11.55-60.65-24.25s-42.66-48.64-26.96-63.41c-.69-3.74.5-8.53,0-12.52,12.84,35.91,27.16,63.07,61.31,82.67,13.09,7.51,26.98,9.6,38.82,17.51Z"/>
  <path class="cls-13" d="M808.51,119.39l-8.34-16.7c1.17,1.13,4.64,1.21,6.3,4.14,2.66,4.67,1.42,8.32,2.04,12.56Z"/>
  <path class="cls-13" d="M629.11,19.21l-12.52-4.17c9.61-.54,11.87,4.06,12.52,4.17Z"/>
  <path class="cls-13" d="M654.14,27.56l-8.34-4.17c5.28,1.53,7.9,4.03,8.34,4.17Z"/>
  <path class="cls-13" d="M666.66,31.74l-8.34-4.17c4.88,1.59,7.46,3.85,8.34,4.17Z"/>
  <path class="cls-13" d="M679.18,35.91l-8.34-4.17c4.37,1.59,7.22,3.75,8.34,4.17Z"/>
  <path class="cls-13" d="M641.63,23.39l-8.34-4.17c6.07,1.44,7.89,4.05,8.34,4.17Z"/>
  <path class="cls-13" d="M716.73,52.61c-8.78-3.38-18.82-3.82-25.03-12.52,8.72,3.44,18.86,3.81,25.03,12.52Z"/>
  <path class="cls-13" d="M745.93,69.3c-8.82-4.48-20.12-7.21-25.03-16.7,8.77,3.64,20.23,7.87,25.03,16.7Z"/>
  <path class="cls-13" d="M595.74,27.56c.54-.24,2.8-5.91,8.34-8.35l-8.34,8.35Z"/>
  <path class="cls-13" d="M766.79,81.83l-8.34-8.35c5.37,2.94,7.35,7.76,8.34,8.35Z"/>
  <path class="cls-13" d="M779.31,90.17l-8.34-8.35c5.38,3.31,6.78,7.23,8.34,8.35Z"/>
  <path class="cls-13" d="M795.99,102.7l-12.52-12.52c6.68,5.02,8.46,8.93,12.52,12.52Z"/>
  <path class="cls-4" d="M508.12,86c1.19.63,4.13,8.25,11.23,11.62,6.66,3.16,29.9,8.71,36.87,8.54,16.04-.4,21.3-11.01,31.17-15.98l5.15-10.13c11.58-5.94,83.5,15.9,86.64,35.18,1.14.54,3.05-.55,4.17,0,10.15-7.69,26.1.56,27.12,11.99,19.01-.14,40.44,19.46,47.97,38.1,8.72,4.57,14.28,14.24,16.69,29.03,8.31,10.83,11.09,20.64,8.34,29.41,9.82,22.01,28.85,36.59,57.09,43.74,41.08,52.68,64.22,127.08,72.17,193.3,3.41,28.41,7.75,69.21-4.09,92.72,1.82,12-6.76,20.04-25.75,24.13-9.26,24.53-17.61,50.03-25.08,76.48,1.61,18,2.97,35.99,4.07,53.96-12.89-1.16-18.84,4.7-17.85,17.58-48.11,67.83-87,109.36-161.74,147.06-58.68,29.6-121.79,55.83-183.22,16.36l-3.45,2.53c-10.02,7.52-14.07,2.69-8.34-8.35-17.29-16.17-24.59-41.59-21.89-76.25l-3.14-7.23c4.21,18.97,6.91,38.62,8.12,58.95l-8.12,5.75c7.23,2.57,7.76,4.63,5.3,10.88-9.17,23.3-90.68,24.46-113.78,24.6l-12.45,4.78c-87.29-32.21-164.2-94.98-211.28-175.45l2.61-13c-13.62,1.7-24.63-27.68-16.69-37.57-21.76-31.71-16.43-60.41,15.69-79.38-37.21-22.84-48.21-77.77-40.53-119.85-4.55-1.89-7.96-3.61-8.53-9.48-8.11-.61-7.16-4.41,0-8.35,1.33-5,3.19-9.5,7.78-8.06,9.9-89.55,40.99-184,112.67-242.82l13.05-32.95c4.81-5.93,6.56-12.77,16.69-12.52,6.38,10.27,7.7,1.11,7.62-8.76,8.01-4.44,13.62-10.57,16.81-18.37,47.59-34.6,108.06-58.6,166.47-67.28,24.29-3.61,74.22-10.07,84.45,15.11Z"/>
  <path class="cls-3" d="M132.64,716.29c39.42,79.29,135.28,158.09,221.12,183.66,44.12.05,85.61-2.81,124.55-24.53l8.95,7.83c3.59,4.86,3.98,4.83,8.34,8.35l6-1.51c67.77,43.61,144.17,2.57,206.41-30.99,3.38-.71,6.23.56,8.71,3.28l8.69,5.63c5.47,20.88,12.31,41.26,20.52,61.15-67.02,37.87-140.89,77.51-219.18,50.24-15.26-5.32-39.27-25.61-49.96-25.63-8.88-.02-22.46,13.13-38.59,16.05-60.6,10.97-84.81,13.18-141.49-10.71-76.26-32.15-164.5-100.58-209.18-170.56-15.63-24.47-6.87-17.83-9.13-34.7,1.53-16.24,40.36-50.75,54.24-37.57Z"/>
  <path class="cls-3" d="M983.74,570.2c-5.14,5.55-13.01,6.73-23.61,3.55l-42.38.99-4.94-8.72c-9.75-1.1-8.86-4.83,0-8.35l4.17-4.17c1.2-98.13-15.92-199.49-71.47-281.84l4.72-10.35c-14.12-14.27,44.31-38.15,43.39-32.15-.71,4.61-3.7.79,2.5-5.41,1.33.19,2.81-.02,4.17,0,19.44,15.2,31.93,41.49,42.46,63.96,37.45,79.98,63.51,196.03,40.98,282.49Z"/>
  <path class="cls-9" d="M232.77,165.31c.03-1.39,5.15-5.24,2.44-8.48-5.1-6.1-34.49-11.55-45.63-21.35-4.4-3.87-9.91-4.26-4.89-12,5.43-8.37,77.61-52.34,91.14-59.09,51.97-25.95,164.1-61.65,218.86-38.18,10.17,4.36,12.11,47.4,13.44,59.8-59.25-31.23-201.43,19.34-250.32,62.57,13.75,1.79,33.44-13.01,41.72,4.17-9.51-.48-47.81,1.74-52.37,8.17-3.01,4.25-1.41,14.79-3.91,21.14-7.73,19.66-19.23,34.66-14.69,58.37-7.35-.85-4.81-22.38-4.16-27.15,2.42-17.83,7.91-27.34,8.38-47.96Z"/>
  <path class="cls-9" d="M82.57,461.67c-.18,2.76.11,5.58,0,8.35l7.97,7.92c-9.02,47.74,7.37,85.69,33.34,122.93-24.13,30.23-29.44,43.06-7.92,77.85,7.63,14.09,10.8,25.73,16.69,37.57-21.25,6.31-35.47,26.42-54.24,37.57-4.75-35.46-36.61-56.03-40.91-78.26-4.6-23.73,13.04-22.5,18.17-38.37,10.54-32.62-19.61-46.77-29.28-75.5-9.66-28.7-12.11-66.33-6.18-95.66,5.85-5.68,55.83,9.55,62.38-8.57,3.6,1.39,3.6,2.78,0,4.17Z"/>
  <path class="cls-9" d="M195.22,207.05c1.76,3.23,3.46,7.47,1.51,9.52-49.04,51.63-64.31,75.1-88.41,146.9-7.3,21.76-11.88,44.4-16.33,66.8l-9.42,6.36c2.43-11.25-5.71-8.03-12.37-10.37-7.16-2.52-40.82-12.33-42.08-17.5,1.36-34.33,12.8-67.51,25.84-98.85,10.79-25.93,51.83-111.14,74.62-121.7,17-7.88,46.55,20.1,66.64,18.84Z"/>
  <path class="cls-3" d="M925.33,720.46c.02.8,3.84,3.53,4,6.76,2.36,47.74-99.75,143.5-137.51,172.72l-8.93,1.85c-12.04-16.86-24.09-33.74-36.14-50.62l3.35-9.67-2.3-5.25c40.22-37.8,78.46-80.46,109.33-126.22l9.79-2.1c4.62-6.32,54.61,4.37,56.43,6.74,1.17,1.53,1.67,3.59,1.98,5.79Z"/>
  <path class="cls-5" d="M983.74,570.2c-.35,1.34.39,2.96,0,4.17l-4.17,4.17c-.5,1.2.51,3.02,0,4.17l-4.17,4.17c-2.67,5.6-5.52,11.17-8.34,16.7l-4.17,4.17c-.57,1.1.56,3.07,0,4.17l-4.17,4.17c-4.15,8.33-8.48,16.66-12.52,25.04l-4.17,4.17c-.53,1.14.51,3,0,4.17l-4.17,4.17c-2.01,4.81-2.45,11.45-4.17,16.7l-4.17,4.17c-.62,2.35.56,5.84,0,8.35l-4.17,8.35c-.38,2.6.13,5.62,0,8.35-2.1,3.59-2.1,6.38,0,8.35.02,4.17-.13,8.36,0,12.52-18.74-1.95-42.92-1.73-58.41-12.52-24.53-46.25,6.11-101.09,36.16-140.49l9.73-1.43c22.64,2.39,50.64-5.27,70.92,4.17Z"/>
  <path class="cls-5" d="M808.51,136.09c7.19,38.97,48.17,82.08,87.61,87.66,8.12,11.77,2.67,6.2-4.09,10.33-13.66,8.34-31.42,14.55-41.81,27.24-.88,1.98-1.86,3.89-3.15,5.56-6.03,7.79-66.15-24.85-63.6-43.13-14.98-18.75-20.85-34.93-25.03-58.44v-4.17c4.59-7.55,22.74-52.49,25.24-54.12,15.28-9.99,17.79,22.16,24.82,29.07Z"/>
  <path class="cls-9" d="M679.18,115.22c-20.66-9.77-72.01-35.01-91.78-25.04,6.08-31.74-1.42-63.95,42.74-57.52,7.23,1.05,48.5,15.41,51.21,19.87,10.42,17.16-14.23,44.62-2.16,62.69Z"/>
  <path class="cls-6" d="M216.08,177.83l-6.43,37.39c-67.64,52.92-105.66,156.47-110.34,240.33-.66,11.86-10.44,4.35-16.73,6.12.09-1.39-.12-2.79,0-4.17.57-6.75-.9-14.37,0-20.87,7.62-55.16,40.01-146.92,73.29-191.73,10.78-14.52,26.68-21.39,39.36-37.84,8.07-10.48,12.32-18.71,20.86-29.22Z"/>
  <path class="cls-5" d="M750.1,841.51l41.72,58.44c-2.25,1.74-6,2.44-8.34,4.17l-8.34,8.35c-.94.65-3.21-.64-4.17,0l-8.34,8.35c-1,.63-3.16-.62-4.17,0l-4.17,4.17c-2.66,1.58-5.65,2.65-8.34,4.17-9.92,2.17-8.75-4.95-11.77-10.96-8.55-17.01-17.13-36.31-17.43-55.82-2.84-10.69,24-25.38,33.38-20.87Z"/>
  <path class="cls-9" d="M683.35,115.22c16-10.78,14.31-56.89,36.4-46.99,22.81,10.22-20.56,54.21-15.52,59.49,20.3-3.56,22.17-30.77,28.25-44.86,1.59-3.69-.18-7.5,6.76-4.84,11.15,4.28,27.14,22.14,40.32,27,.49,6.9-20.43,32.4-23.63,43.8-2.79,9.96,2.37,10.79,2.52,12.32.13,1.37-.24,2.84,0,4.17-21.93-16.74-50.64-38.12-75.1-50.09Z"/>
  <path class="cls-11" d="M925.33,707.94l-4.15-2.13,4.15-6.22c-.13,2.76-.02,5.58,0,8.35Z"/>
  <path class="cls-11" d="M925.33,691.24l4.17-8.35c-1.42,6.4-4.1,7.89-4.17,8.35Z"/>
  <path class="cls-11" d="M754.27,924.99l4.17-4.17c-1.25.77-2.37,3.11-4.17,4.17Z"/>
  <path class="cls-11" d="M762.62,920.82l8.34-8.35c-1.22.82-3.18,5.11-8.34,8.35Z"/>
  <path class="cls-11" d="M775.13,912.47l8.34-8.35c-1.62,1.2-3.45,4.99-8.34,8.35Z"/>
  <path class="cls-11" d="M929.5,674.55l4.17-4.17c-.71,2.15-4.01,3.56-4.17,4.17Z"/>
  <path class="cls-11" d="M937.84,653.68l4.17-4.17c-1.03,2.34-3.92,3.57-4.17,4.17Z"/>
  <path class="cls-11" d="M942.02,645.33l4.17-4.17c-.88,1.83-3.67,3.08-4.17,4.17Z"/>
  <path class="cls-11" d="M958.7,616.11l4.17-4.17c-1.18,2.31-3.83,3.49-4.17,4.17Z"/>
  <path class="cls-11" d="M962.88,607.76l4.17-4.17c-.93,1.83-3.57,3.01-4.17,4.17Z"/>
  <path class="cls-11" d="M975.39,586.89l4.17-4.17c-1.05,2.35-3.84,3.48-4.17,4.17Z"/>
  <path class="cls-11" d="M979.56,578.54l4.17-4.17c-.58,1.8-3.74,3.13-4.17,4.17Z"/>
  <path class="cls-8" d="M912.81,557.67c-.51,2.53.77,6.53,0,8.35-12.88,30.62-49.66,69.38-50.05,106.43-.11,10.51,7.3,23.82,4.16,35.49-6.88,25.52-92.63,115.29-116.82,133.57-7.52,5.68-24.41,15.53-33.38,20.87-17.93,10.67-46.24,24.84-65.66,32.4-49.95,19.46-109.44,33.92-155.46-3.19-4.56-7.63-8.12-10.51,4.68-6.79,20,5.83,38.38,18.68,59.92,19.58,8.65.36,43.96-4.7,52.22-7.23,22.79-6.99,120.53-57.8,139.75-72.34,23.37-17.68,31.5-39.17,48.08-60.42,17.67-22.65,48.85-33.51,33.29-68.95l24.99,8.3c2.32-18.95-9.53-32.98-8.5-52.01.8-14.74,10.44-29.63,14.99-43.75,2.61-8.11,1.02-17.34,3.75-25.46,5.12-15.22,20.58-15.1,33.14-21.27,3.9-1.92,5.24-6.75,6.7-7.74.96-3.82,2.37-3.72,4.17,0,2.16,1.27,2.11,2.66,0,4.17Z"/>
  <path class="cls-10" d="M850.23,261.31c7.45,19.92,21.17,36.23,29.92,55.64,33.28,73.81,46.86,156.01,36.83,236.55-1.28,1.95-2.67,1.89-4.17,0-1.39.35-3.38-.54-4.17,0,4.98-23.57,2.54-56.55-.05-81.35-4.99-47.87-39.17-170.32-75.42-200.03-11.95-9.8-29.39-14.55-39.32-23.27-2.7-2.37-19.55-21.27-10.37-25.1,16.04,20.06,39.74,38.24,66.75,37.57Z"/>
  <path class="cls-6" d="M82.57,470.02c6.45,1.79,15.81-5.78,16.71,6.11,1.23,16.37-3.95,31.9-3.19,45.02.64,11.02,15.02,52.9,22.09,61.43,12.3,14.82,30.73,6.68,47.82,8.53-9.17,12.19-31.76,13.88-43.24,21.37-10.76,7.02-16.11,17.51-15.35,30.58l8.55,35.66c-5.79-10.7-20.21-22.14-20.89-35.87-.73-14.63,20.58-27.52,20.63-41.34.03-8.26-27.74-42.96-32.14-63.6-5.06-23.74-1.85-45.46-.97-67.9Z"/>
  <path class="cls-1" d="M487.26,883.25c-17.34-1.18-23.83,10.88-41.47,14.86-30.55,6.9-62.37,10.67-92.04,1.83,18.36-10.61,108.47-6.06,108.47-35.48v-64.7c5.54-1.07,6.66,7.65,7.29,11.45,5.8,35.3.9,35.53,19.49,67.92,1.16,2.02-1.88,3.93-1.75,4.11Z"/>
  <path class="cls-3" d="M742.38,690.62c-10.05-6.36-7.36-34.33,18.14-33.17,33.53,1.53,6.67,48.88-18.14,33.17Z"/>
  <path class="cls-12" d="M912.81,557.67v-4.17h4.17c-.24,1.96-2.14,3.79-4.17,4.17Z"/>
  <path class="cls-7" d="M462.21,390.73c1.31,1.32.15,13.11-2.04,16.7-9.47,15.6-27.19,1.7-17.01-12.84,3.06-4.37,17.59-5.32,19.04-3.86Z"/>
</svg>