<?xml version="1.0" encoding="UTF-8"?>
<svg id="Layer_1" data-name="Layer 1" xmlns="http://www.w3.org/2000/svg" viewBox="0 0 1000 1000">
  <defs>
    <style>
      .cls-1 {
        fill: #ccc200;
      }

      .cls-2 {
        fill: #493d5e;
      }

      .cls-3 {
        fill: #645675;
      }

      .cls-4 {
        fill: #a09c00;
      }

      .cls-5 {
        fill: #eae400;
      }

      .cls-6 {
        fill: #fff200;
      }
    </style>
  </defs>
  <path class="cls-3" d="M103.92,244.6c-17.67,91.03-41.65,182.64-38.61,275.91.02.75.06,1.47.07,2.22-2.31-9.53-7.49-17.34-15.21-23.6.06-2.87.11-5.76.21-8.63,2.82-95.9,25.97-191.09,52.27-280.55,13.35,6.15,3.24,24.55,1.27,34.66Z"/>
  <path class="cls-3" d="M117.55,641.89c-11,2.83-14.52-1.04-19.97-7.46-9.47-11.11-45.04-98.9-32.2-111.71,18.85,29.44,35.16,85.85,52.16,119.16Z"/>
  <path class="cls-3" d="M370.92,254.63c-16.33-4.74,1.94-20.97,5.78-27.76,9.41-16.63,30.54-32.12-9.19-32.14-30.31,0-156.48,49.09-175.61,70.88-35.55,67.62,10.25,153.76-44.46,219.89,4.87-64.24-2.31-179.49,31.02-233.33,31.79-51.4,192.87-126.97,203.89-154.08,15.81-38.91-24.01-56.8-56.13-51.99,74.36-34.77,103.47,52.33,37.04,89.45l-140.9,93.31,104.34-40.68c89.26-26.02,91.63,17.56,44.22,66.46Z"/>
  <path class="cls-3" d="M959.63,306.75c-23.02,23.56-47.17,37.62-48.4,74.44-16.24-14.71-13.31-38.94-25.86-56.08-8.18-11.19-24.4-15.55-29.57-22.58-19.03-25.95-21.12-54.1-54.92-71.74-16.54-8.63-109.04-35.33-127.92-36.13-34.23-1.44-42.06-2.89-56.11,30.16-11.54-14.02-8.41-21.74,2.8-33.35,38.31-39.67,246.73,25.82,247.37,101.41,18.9,11.07,36.05,23.45,41.22,46.53,15.88-27.27,33.02-38.18,51.4-32.68Z"/>
  <path class="cls-3" d="M971.12,617.87c-11.93,54.08-31.6,103.37-97.28,78.91-80.54,81.11-176.56,137.1-279.66,189.2-3.82,1.94-7.66,3.88-11.5,5.8-10.61,6.38-19.78,5.33-25.34-1.03-3.43-3.91-5.46-9.82-5.63-17.26-74.57-14.19-147.97-32.79-220.17-55.85-64.78-57.27-123.58-120.95-176.38-191.05-4.14,10.44-9.66,20.32-16.09,24.5-6.38,4.18-13.68,2.76-21.53-9.21,23.62,5.28,23.56-37.04,33.54-37.1,16.85-.07,135.88,172.7,187.49,199.77,40.77,21.36,226.36,51.17,233.63,60.83,1.55,2.07-13.74,19.43-3.84,22.22,61.58-44.78,134.69-72.65,197.01-115.9,23.64-16.41,89.02-82.19,104.55-88.89,13.76-5.91,41.05,28.99,74.85-22.28,27.2-41.27,24.7-178.17,22.63-231.22-1.3-32.92-20.49-75.84-.32-107.68,15.57,98.47,16.91,197.22,4.03,296.23Z"/>
  <path class="cls-4" d="M914.93,768.51c-96.36,112.62-295.95,246.73-450.07,230.09-85.38-9.21-267.09-108.8-334.84-164.35C56.87,774.23,7.34,593.36,5.77,500.39c9.27-20.62,30.18-21.4,44.61-9.9,8.17,6.51,14.24,16.98,14.93,30.01.02.75.06,1.47.07,2.22,18.85,29.44,35.16,85.85,52.16,119.16l21.23,8.56c.09.22.21.43.3.65,70.58,156.37,249.32,253.18,418.26,239.67,12.34-.99,24.65-2.57,36.84-4.77,34.81-6.23,68.81-17.41,100.93-34.04l199.44-101.86c18.08-6.04,27.59.41,20.38,18.42Z"/>
  <path class="cls-5" d="M914.93,768.51c-4.33-14.82-22.45-.11-29.94,3.6-182.51,90.49-300.42,187.3-513.92,104.25-136.26-53-188.7-107.47-253.52-234.47-17-33.31-33.31-89.73-52.16-119.16-.02-.75-.06-1.47-.07-2.22-3.04-93.27,20.94-184.88,38.61-275.91,1.98-10.1,12.08-28.5-1.27-34.66,34.81-53.3,160.49-154.42,223.56-163.85,32.12-4.81,71.94,13.09,56.13,51.99-11.02,27.11-172.11,102.68-203.89,154.08-33.33,53.84-26.16,169.09-31.02,233.33,54.72-66.12,8.91-152.27,44.46-219.89,19.13-21.79,145.3-70.88,175.61-70.88,39.73.02,18.61,15.51,9.19,32.14-3.84,6.79-22.11,23.02-5.78,27.76,21.51-15.9,56.32-24.01,81.97-29.79,4.87-1.1,9.94-4.62,12.84-6.41.02-.02.06-.04.09-.06l1.98-.99c9.41-1.19,20.08.56,29.81,0,21.74-9.6,51.94-5.48,74.51,0,11.32,1.08,35.44,3.95,44.72,7.46,14.06-33.05,21.89-31.6,56.11-30.16,18.88.8,111.39,27.5,127.92,36.13,33.8,17.64,35.89,45.79,54.92,71.74,5.16,7.03,21.38,11.39,29.57,22.58,12.55,17.13,9.62,41.37,25.86,56.08,1.23-36.82,25.37-50.88,48.4-74.44,1.99,4.57,5.18,8.05,7.46,14.9,44.01,132.08,39.91,339.24-52.16,446.86Z"/>
  <path class="cls-1" d="M103.92,244.6c-17.67,91.03-41.65,182.64-38.61,275.91.02.75.06,1.47.07,2.22-16.42-25.65-30.24-24.68-59.62-22.33-1.6-95.95,44.65-210.51,96.88-290.45,13.35,6.15,3.24,24.55,1.27,34.66Z"/>
  <path class="cls-2" d="M465.74,218.42c-2.91,1.79-7.98,5.31-12.84,6.41l12.84-6.41Z"/>
  <path class="cls-2" d="M572.13,217.38c-22.58-5.48-52.78-9.6-74.51,0,19.87-9.08,44.72-9.08,74.51,0Z"/>
  <path class="cls-6" d="M959.63,306.75c-23.02,23.56-47.17,37.62-48.4,74.44-16.24-14.71-13.31-38.94-25.86-56.08-8.18-11.19-24.4-15.55-29.57-22.58-19.03-25.95-21.12-54.1-54.92-71.74-16.54-8.63-109.04-35.33-127.92-36.13-34.23-1.44-42.06-2.89-56.11,30.16-9.28-3.5-33.41-6.38-44.72-7.46-22.58-5.48-52.78-9.6-74.51,0-9.73.56-20.39-1.19-29.81,0l-1.98.99s-.07.04-.09.06l-12.84,6.41c-25.65,5.78-60.46,13.89-81.97,29.79-16.33-4.74,1.94-20.97,5.78-27.76,9.41-16.63,30.54-32.12-9.19-32.14-30.31,0-156.48,49.09-175.61,70.88-35.55,67.62,10.25,153.76-44.46,219.89,4.87-64.24-2.31-179.49,31.02-233.33,31.79-51.4,192.87-126.97,203.89-154.08,15.81-38.91-24.01-56.8-56.13-51.99,96.2-69.72,269.53-51.51,372.59-3.71,81.5,37.81,225.2,182.16,260.83,264.37Z"/>
  <path class="cls-3" d="M465.74,218.42c-2.91,1.79-7.98,5.31-12.84,6.41l12.84-6.41Z"/>
  <path class="cls-3" d="M467.81,217.38l-1.98.99c.91-.56,1.6-.93,1.98-.99Z"/>
</svg>