<?xml version="1.0" encoding="UTF-8"?>
<svg xmlns="http://www.w3.org/2000/svg" viewBox="0 0 78.98 500">
  <defs>
    <style>
      .cls-1 {
        fill: #969696;
      }

      .cls-1, .cls-2, .cls-3, .cls-4, .cls-5, .cls-6, .cls-7, .cls-8, .cls-9, .cls-10, .cls-11, .cls-12, .cls-13, .cls-14, .cls-15, .cls-16, .cls-17, .cls-18 {
        fill-rule: evenodd;
      }

      .cls-2, .cls-4 {
        fill: #fff;
      }

      .cls-3, .cls-4, .cls-19, .cls-15, .cls-16, .cls-17 {
        mix-blend-mode: soft-light;
      }

      .cls-3, .cls-15, .cls-16 {
        fill: #c7ccdb;
      }

      .cls-4, .cls-12, .cls-14, .cls-15 {
        opacity: .2;
      }

      .cls-19, .cls-7, .cls-11 {
        opacity: .3;
      }

      .cls-5 {
        fill: #807e77;
      }

      .cls-6 {
        fill: #aaa;
      }

      .cls-7 {
        fill: #595851;
      }

      .cls-7, .cls-11, .cls-12, .cls-13, .cls-14 {
        mix-blend-mode: multiply;
      }

      .cls-20 {
        isolation: isolate;
      }

      .cls-8 {
        fill: #4c4b4c;
      }

      .cls-9, .cls-13 {
        fill: #3e3d37;
      }

      .cls-10 {
        fill: #babcbe;
      }

      .cls-11, .cls-12 {
        fill: #686868;
      }

      .cls-13 {
        opacity: .6;
      }

      .cls-14 {
        fill: #adadad;
      }

      .cls-16 {
        opacity: .5;
      }

      .cls-17 {
        fill: #d6d6d6;
      }

      .cls-18 {
        fill: #ecedee;
      }
    </style>
  </defs>
  <g class="cls-20">
    <g id="objects">
      <g>
        <path class="cls-5" d="M73.2,30.36c2.15,146.43,2.15,292.86,0,439.29-.13,8.41-6.78,20.36-15.18,24.47-12.29,6.17-26.43,7.74-39.6,3.51-9.97-4.1-16.44-14.91-17.24-25.41-2.2-148.14-2.2-296.29,0-444.43C1.97,17.28,8.44,6.47,18.42,2.38,31.58-1.85,45.73-.28,58.02,5.88c8.4,4.11,15.06,16.07,15.18,24.47Z"/>
        <path class="cls-10" d="M51.52,1.82h.01c3.67.98,7.23,2.34,10.67,4.07,8.4,4.1,15.06,16.06,15.18,24.47.28,18.95.52,37.91.72,56.87-.01.01-.01.02,0,.03.41,37.7.68,75.41.79,113.12h0c.03,5.57.05,11.13.06,16.69v.03c.01,7.32.02,14.63.02,21.95h0c.02,16.29,0,32.55-.05,48.82h0c.01.62.01,1.23,0,1.84-.02,9.33-.06,18.67-.1,27.99-.02,6.99-.06,13.99-.1,20.98-.09,16.43-.22,32.85-.37,49.28-.07,7.2-.14,14.39-.21,21.6v.02c-.01.77-.02,1.55-.03,2.32h0c-.14,14.03-.32,28.07-.53,42.08,0,.01.01.01,0,.02,0,.67-.01,1.32-.02,1.99-.03,2.93-.08,5.87-.13,8.8v.38h0c0,.85-.01,1.7-.03,2.54v.02c0,.63-.01,1.28-.02,1.91-.1,6.77-4.45,15.85-10.53,21.26-.01.02-.02.03-.05.05-.97.86-1.99,1.63-3.03,2.28-.52.33-1.05.62-1.57.88-.94.47-1.9.92-2.85,1.32-1.1.48-2.22.93-3.34,1.33-.14.06-.28.1-.43.15-3.48,1.23-7.07,2.1-10.7,2.6-2.15.3-4.31.46-6.47.47-.38.01-.76.01-1.13,0-4.93-.05-9.87-.82-14.69-2.37-.7-.29-1.38-.61-2.05-.97-8.8-4.66-14.45-14.68-15.18-24.45-.07-4.6-.14-9.18-.2-13.78-.7-50.47-1.16-100.97-1.34-151.44-.03-8.33-.06-16.66-.08-24.99-.08-35.16-.02-70.33.15-105.49,0-.34,0-.68.01-1.02h0c0-1.39,0-2.76.01-4.14h0c.03-5.4.06-10.78.1-16.17.06-10.32.14-20.64.23-30.97-.01-.08-.01-.16,0-.24v-.02c.01-2.69.03-5.38.07-8.06-.01-.02-.01-.05,0-.07.05-5.2.09-10.39.15-15.57,0-.53,0-1.05.01-1.56.16-15.28.33-30.56.54-45.84.1-8.36.22-16.7.34-25.06.4-5.37,2.3-10.83,5.39-15.43,2.94-4.38,6.98-7.98,11.84-9.98,1.46-.47,2.93-.86,4.41-1.18,8.14-1.82,16.53-1.52,24.52.62Z"/>
        <path class="cls-15" d="M74.78,51.34c.44,3.6.6,6.84.58,10.43-.02,3.92.58,7.72.58,11.66,0,2.37.39,5.22-1.14,7.27-1.75,2.35-3.29-1.29-4.09-2.77-1.98-3.7-3.5-8.06-4.67-12.07-1.35-4.61-1.61-9.31-3.46-13.84-1.72-4.19-3.82-8.21-5.71-12.3-1.9-4.12-1.85-9.09-3.29-13.37-.66-1.96-.9-4.16-1.76-6.03-.77-1.67-2.23-4.11-3.45-5.49-.84-.96-2.14-1.84-3.31-2.44-2.04-1.04-4.18-.24-6.31-.5-2.12-.26-4.89-2.19-4.4-4.72.36-1.87,3.29-2.84,4.84-2.89,3.18-.09,6.37.14,9.49.74,3.04.58,6.35.23,9.27,1.36,2.85,1.11,5.31,2.58,7.6,4.59,2.56,2.25,5.82,4.62,7.38,7.71.99,1.97,2.83,4.06,3.05,6.39.24,2.6.56,5.17.55,7.81-.02,7.15-.14,14.25-1.74,18.46Z"/>
        <path class="cls-1" d="M1.14,29.97c1,.49,2.65-2.97,3.74-2.88-.2-.9.41-1.39.69-2.17.31-.85.58-1.77.87-2.63.45-1.33.97-2.6,1.5-3.92.23-.57.68-.98.99-1.5.46-.75.73-1.49,1.26-2.21.86-1.16,1.76-2.35,2.66-3.47,2-2.48,4.14-4.63,6.75-6.42,1.4-.96,2.53-1.97,3.94-2.83.53-.32.95-.66,1.51-.93.42-.2,1.37-.43,1.46-.84-.67.18-1.47.57-2.12.8-.68.23-1.35.35-2.08.53-1.48.37-3.13,1.13-4.55,1.55-.89.26-1.67.37-2.54.86-.6.34-1.52.68-2.06,1.08-1.19.89-2.54,1.6-3.76,2.52-1.21.91-2.37,2.33-3.19,3.58-.46.7-.92,1.21-1.42,1.86-.52.68-.78,1.59-1.19,2.4-.85,1.66-1.49,3.42-1.85,5.24-.16.8-.44,1.29-.43,2.17,0,.4-.12.94-.02,1.33.13.54.05,4.36-.14,5.9Z"/>
        <path class="cls-1" d="M27.74,499.4c-1.63-.76-3.37-1.73-5-2.25-.67-.22-1.1-.51-1.68-.88-.77-.48-1.6-.59-2.33-1.15-.64-.49-1.31-.79-1.88-1.38-.53-.55-1.05-1.06-1.59-1.6-.32-.32-.72-.45-1.03-.74-.33-.31-.47-.66-.7-1.05-.68-1.16-1.48-2.26-2.18-3.4-.63-1.02-1.58-1.8-2.2-2.87-.48-.81-1.19-1.37-1.66-2.16-.96-1.6-1.37-3.37-2.02-5.1-.27-.73-.42-1.36-.6-2.1-.13-.51-.1-1.23-.42-1.68-.14-.2-.38-.3-.52-.5-.27-.38-.35-.9-.58-1.31-.25-.45-.6-1.26-1.09-1.41-.48.64-.61,1.54-.65,2.29-.03.77-.39,1.28-.23,2.1.19.98.53,1.94.73,2.91.19.94.26,1.95.57,2.82.32.9.6,1.83,1.01,2.68.52,1.06,1.26,1.87,1.75,2.92.74,1.59,1.62,3.1,2.54,4.57.93,1.48,1.98,3.14,3.48,4.06,1.68,1.03,3.25,2.07,5.01,2.98,1.81.93,3.71,1.44,5.65,1.96.94.25,1.75.16,2.69.28.47.06,2.52.83,2.91.02Z"/>
        <path class="cls-17" d="M1.75,29.27c1.16-.87,3.15-1.86,3.51-3.46.12-.53-.04-1.12.07-1.67.08-.4.35-.97.44-1.5.22-1.3.77-2.58,1.11-3.82.47-1.72-.81-1.29-2.08-1.31-2.12-.02-3.09,2.03-3.05,3.92.02,1.14-.44,1.85-.43,3.05,0,1.16,0,2.32,0,3.48l.44,1.31Z"/>
        <path class="cls-6" d="M5.38,476.75c.23,1.1.5,2.15.86,3.21.34,1.01.94,1.68,1.4,2.6.63,1.26,1.6,2.07,2.46,3.13.78.96,1.61,1.91,1.69,3.27.06.96-.86,1.89-1.76,1.66-.62-.16-.78-.38-1.21-.8-.41-.4-.81-.49-1.12-1.01-.36-.6-.46-.87-.92-1.38-1.42-1.58-2.58-3.42-3.37-5.39-.49-1.23-.56-3.01-.21-4.28.19-.69.24-.98,1.02-1.02.7-.03.9.17,1.16,0Z"/>
        <path class="cls-8" d="M77.56,455.99c-.03,3.06-.08,6.13-.13,9.18h0c0,.85-.01,1.7-.03,2.54v.02c0,.63-.01,1.28-.02,1.91-.1,6.77-4.45,15.85-10.53,21.26-.01.02-.02.03-.05.05-1.45,1.29-3,2.37-4.61,3.16-2.02,1.01-4.08,1.9-6.2,2.66-.14.06-.28.1-.43.15-3.48,1.23-7.07,2.1-10.7,2.6-2.15.3-4.31.46-6.47.47-.38.01-.76.01-1.13,0-4.93-.05-9.87-.82-14.69-2.37-.7-.29-1.38-.61-2.05-.97,1.59.43,3.15.89,4.75,1.45,1.31.47,3.39.78,4.8.45,2.41-.56,4.39-2.56,6.94-1.18,3.55,1.91,8.16-1.01,10.92-3.34,2.25-1.92,3.68-4.32,5.75-6.39,2.28-2.28,4.92-4.33,7.45-6.32,3.16-2.49,6.31-4.93,9.71-7.05,2.17-1.36,3.43-2.92,4.66-5.23.72-1.34.98-1.99,1.01-3.61.01-1,.21-1.47.45-2.41.37-1.47-.08-2.95.09-4.43.1-.87.29-1.74.49-2.6Z"/>
        <path class="cls-8" d="M78.98,239.07c.02,16.28,0,32.54-.05,48.8h0c.01.62.01,1.23,0,1.84-.02,9.33-.06,18.67-.1,27.99-.02,6.99-.06,13.99-.1,20.98-.09-.32-.23-.61-.33-1-.26-1.01-.08-2.05-.25-3.07-.29-1.62-1.06-2.85-1.03-4.51.02-1.38,0-2.77,0-4.15v-4.01c0-.79.26-2.16.02-2.91-.44-1.37-2.23-1.66-3.34-2.26-2.49-1.34-3.67-2.86-4.11-5.66-.34-2.17-.4-4.98-.13-7.17.15-1.23.57-1.98.57-3.37.01-1.55.24-3.07.44-4.61.47-3.72.64-7.47,1.29-11.16.55-3.21,1.66-6.18,2.55-9.3.37-1.28.53-2.71.97-3.97.33-.98.87-1.9,1.31-2.85,1.05-2.34,1.63-4.44,1.61-7.22-.03-5.32-2.2-10.99-1.05-16.28.36-1.63.74-2.98,1.15-4.52.16-.59.39-1.09.6-1.61Z"/>
        <path class="cls-8" d="M51.52,1.82h.01c3.67.98,7.23,2.34,10.67,4.07,8.4,4.1,15.06,16.06,15.18,24.47.28,18.95.52,37.91.72,56.87-.63-4.79-1-9.59-1-14.43,0-2.49-.01-4.98,0-7.47.01-3.49-.64-6.82-.6-10.31.05-3.47-.89-6.7-1.13-10.03-.34-4.77-1.64-9.61-2.36-14.3-.48-3.17-2.53-6.33-4.52-8.99-1.41-1.88-2.11-4.28-3.31-6.32-1.05-1.79-2.11-3.57-3.21-5.3-1.51-2.4-3.39-3.68-5.83-5.06-.84-.48-1.57-.82-2.44-1.16-.92-.39-1.69-1.38-2.7-1.44.05-.23.23-.44.49-.61Z"/>
        <path class="cls-9" d="M74.49,316.75c-1.41-1.01-2.02-1.62-2.97-2.9-.36-.49-.76-.82-1.04-1.38-.25-.5-.27-1-.42-1.53-.33-1.18-.06-2.06.35-3.24.33-.95.83-1.87,1.11-2.84.3-1.02.55-1.99.94-2.99.84-2.1,1.05-4.41,1.73-6.56.43-1.37.78-2.81,1.1-4.2.2-.87.63-1.77,1.15-2.54.31-.45.76-.79.91-1.32.38-1.27.62-2.52.91-3.88.21-.95-.04-2.21-.02-3.19.04-1.57.3-3.08.3-4.67,0-.48-.07-1.03-.02-1.51.06-.58.29-1.02.31-1.61.02-.69,0-1.39,0-2.08v-2.63c0-.71.15-1.61-.06-2.29-.35.06-.71.57-.89.88-.41.74-.65,2.03-.87,2.85-.33,1.24-.62,2.55-1.09,3.74-.19.49-.34,1.03-.56,1.51-.24.51-.64.88-.82,1.42-2.06,5.98-1.78,12.54-3.55,18.59-.66,2.26-1.35,4.5-1.72,6.84-.07.48.02.94-.01,1.42-.03.45-.21.85-.28,1.3-.14.97-.13,2.26,0,3.23.14,1.09.18,2.28.41,3.34.1.47.13.98.29,1.44.11.31.34.56.42.89.14.56-.1,1.18,0,1.74.13.73,1.51,2.03,4.37,2.18Z"/>
        <path class="cls-9" d="M64.32,492.14c-1.23.51-2.38.91-3.62,1.2-.79.18-1.98.53-2.79.27-1.25-.41-1.14-2.46-1.14-3.5,0-1.04,0-2.09,0-3.13,0-.4.24-1.9-.01-2.23-.73-.96-2.42,2.08-2.67,2.46-.46.69-1.01,1.24-1.5,1.89-.49.64-1.09,1.23-1.56,1.89-.48.68-1.25,1.28-1.64,2.02-.44.86-.6,1.81-1.47,2.34-.59.36-1.27.62-1.89.93-.34.17-1.68.6-1.74.98-.19,1.03,4.37.98,4.94.98,1.58,0,2.85-.39,4.36-.87,1.34-.43,2.74-.79,4.04-1.33.64-.27,1.18-.79,1.79-1.14.66-.38,1.36-.66,2.02-1.02,1.31-.7,2.66-1.63,2.89-1.74Z"/>
        <path class="cls-13" d="M72.16,28.69c.12-.77.11-1.82.27-2.6.12-.56.29-.95.31-1.54.04-1.03-.01-2.08,0-3.11,0-1.03-.23-1.91-.28-2.92-.04-.81-.49-1.43-.24-2.29.43.06.62.67.8,1,.53.95,1.08,1.68,1.47,2.72.31.83.84,1.6,1.23,2.41.27.57.53,1.14.81,1.68.25.48.25.86.35,1.39.05.23.2.32.23.64.04.32-.03.51.06.81.06.22.2.36.23.64.04.28-.01.59,0,.88,0,.67-.26.96-.29,1.6-.03.62.03,1.16.15,1.75.14.66.14,1.25.15,1.95,0,1.63.29,3.14.29,4.78,0,.47.07,1.01.02,1.47-.06.53-.29.98-.32,1.52-.07,1.17.02,2.19-.21,3.35-.2.98.1,2.01-.05,2.98-.07.46-.3,1.97-.83,2.08-.26-1.91-.67-3.86-1-5.8-.22-1.31-.54-2.61-.93-3.88-.24-.8-.51-1.59-.76-2.38-.2-.64-.15-1.24-.32-1.86-.11-.42-.39-.76-.5-1.17-.12-.46-.15-.97-.24-1.44-.18-.89-.37-1.7-.36-2.61,0-1.06,0-2.12,0-2.02Z"/>
        <path class="cls-3" d="M77.54,71.95c-.45-1.63-.91-3.1-.87-4.77.02-.92.02-1.75-.22-2.64-.21-.79-.2-1.45-.21-2.26-.01-1.14-.41-2.14-.46-3.28-.04-1.13.04-2.12-.21-3.22-.29-1.31-.07-2.54-.26-3.86-.38-2.7-.55-5.56-1.38-8.19-.69-2.19-1.53-4.38-1.97-6.64-.43-2.19-.69-4.43-1.4-6.55-.68-2.04-1.15-4.13-1.85-6.18-.34-.99-.71-1.99-1.1-2.96-.17-.44-.6-1.1-.56-1.55.7.78,1.29,1.49,1.89,2.37.56.82,1.43,1.43,1.97,2.26.45.7.78,1.48,1.18,2.18.14.24.49.73.55.97.12.42-.02.82.07,1.23.09.4.39.43.48.83.1.44-.01.96.07,1.42.21,1.16.41,2.28.68,3.39.47,1.93.56,4.06,1.35,5.9.75,1.75,1.37,3.55,1.36,5.53,0,1.3-.22,2.84.04,4.09.3,1.47.4,2.67.4,4.18,0,2.9,0,5.81,0,8.71,0,2.61.44,5.11.44,9.05Z"/>
        <path class="cls-11" d="M6.3,458.42c.13.32-.07,1.08-.01,1.47.1.62.49,1.29.69,1.89,1.64,4.77,3.49,9.41,5.37,14.1.94,2.37,1.68,4.77,2.59,7.13.46,1.21,1.34,3.3,2.33,4.08,2.1,1.66,3.86.7,6.26.38,3.44-.45,6.47,1.61,9.44,2.82,2.92,1.2,6.53,2.02,9.29.01.67-.47,1.26-1.34,1.86-1.91.71-.7,1.49-1.32,2.21-2.05,1.77-1.8,3.78-3.1,5.74-4.68,1.08-.87,1.46-2.07,2.98-2.32,1.08-.18,1.84-.15,2.91-.43.97-.25,1.92-.02,2.9-.26,2.32-.57,4.8-1.89,6.97-2.77,2.15-4.67,5.31-7.34,8.2-10.08.36-.33.9-.79,1.44-1v.38h0c0,.85-.01,1.7-.03,2.54v.02c0,.63-.01,1.28-.02,1.91-.1,6.77-4.45,15.85-10.53,21.26-.01.02-.02.03-.05.05-.97.86-1.99,1.63-3.03,2.28-1.52.67-3.13,1.24-4.43,2.21-1.1.48-2.22.93-3.34,1.33-.14.06-.28.1-.43.15-3.48,1.23-7.07,2.1-10.7,2.6-2.15.3-4.31.46-6.47.47-.38.01-.76.01-1.13,0-4.93-.05-9.87-.82-14.69-2.37-.7-.29-1.38-.61-2.05-.97-8.8-4.66-14.45-14.68-15.18-24.45-.07-4.6-.14-9.18-.2-13.78.31-.6.69-1.09,1.14-.01Z"/>
        <path class="cls-7" d="M78.9,200.39c.03,5.56.05,11.12.06,16.68v.03c.01,7.32.02,14.63.02,21.95h0c.02,16.29,0,32.55-.05,48.82h0c.01.62.01,1.23,0,1.84-.02,9.33-.06,18.67-.1,27.99-.02,6.99-.06,13.99-.1,20.98-.09,16.43-.22,32.85-.37,49.28-.07,7.2-.14,14.39-.21,21.6v.02c-.01.77-.02,1.55-.03,2.32h0c-.14,14.03-.32,28.07-.53,42.08-.52-2.37-1.07-4.13-1.07-6.53.01-2.01-.1-3.94.3-5.91,1.15-5.7-.1-11.89.57-17.69.47-4.01-.02-7.7-.29-11.71-.3-4.54-.57-8.94-.59-13.49,0-4.2.26-8.45-.13-12.62-.25-2.72-.34-5.33-.44-8.06-.08-2.8-.63-5.53-.62-8.34.02-3.53-.36-7.31.16-10.82.44-2.97.45-5.79.45-8.79,0-5.25.49-10.21,1.3-15.38.38-2.38.75-4.53.03-6.91-.51-1.69-1.72-2.86-3.05-4.01-1.41-1.22-3.09-2.18-4.7-3.07-1.56-.86-3.54-1.33-4.62-2.82-4.55-6.22-1.67-16.01-1.72-23.01-.05-4.46-.21-9.06.69-13.47.62-3.06,1.34-4.76,4.08-6.29,3.06-1.7,5.18-3.01,6.1-6.75,1.03-4.25,1.6-8.52,1.33-12.9-.16-2.63-1.11-5.16-1.22-7.79-.13-3,.24-5.71.77-8.64,1.62-9.03.54-18.26,1.72-27.33.49-3.77.87-7.46,2.16-11.07.02-.06.05-.13.07-.18Z"/>
        <path class="cls-11" d="M27,1.2c-.63.68-1.28,1.24-2.07,1.93-1.06.91-1.78,2.1-2.74,3.1-.91.94-1.93,1.98-2.61,3.1-.69,1.16-1.1,2.16-2.16,3.07-.79.68-1.37,1.34-1.91,2.25-.7,1.21-.52,1.62-.25,2.83.24,1.08.29,2.41,1.11,3.33.68.76,1.87.71,2.8,1.16.99.47,1.63.66,2.06,1.7.46,1.13.74,2.33.98,3.52.68,3.21,1.7,6.46-.67,9.26-1.61,1.91-3.99,2.47-6.22,3.37-1.53.62-4.52,1.51-5.47,2.94-.87,1.31-1.06,2.77-1.56,4.24-.74,2.2-1.94,4.21-3.07,6.22-.07-.13-.15-.25-.22-.39.1-8.36.22-16.7.34-25.06.4-5.37,2.3-10.83,5.39-15.43,2.94-4.38,6.98-7.98,11.84-9.98,1.46-.47,2.93-.86,4.41-1.18Z"/>
        <g class="cls-19">
          <path class="cls-2" d="M21.21,229.31c2.36.99,3.99,2.13,6.45,1.66,2.43-.46,3.73-1.49,5.22-3.4,1.04-1.33,3.3-4.18,1.74-5.84-1.58-1.68-5.69-2.47-7.76-1.78-3.56,1.19-5.78,3.88-5.65,7.62v1.74Z"/>
          <path class="cls-2" d="M16.56,236.86c-2.2,1.06-3.83,2.63-5.79,1.04-1.31-1.06-1.61-1.63-.33-2.79,1.71-1.55,4.66-1.79,4.96,1.17l1.16.58Z"/>
          <path class="cls-2" d="M18.88,204.34c2.08-.35,4.86-.11,5.18-2.62.11-.85.05-1.64-.88-1.99-1.69-.64-3.37,2.01-3.14,3.45l-1.16,1.16Z"/>
          <path class="cls-2" d="M50.24,193.3c-2.36-1.27-4.56-2.1-4.57-5.1,0-1.5,1.1-2.85,2.38-3.65,1.21-.76,2.08-.73,3.09.28,1.31,1.31.84,3.29.85,4.98l-1.74,3.48Z"/>
          <path class="cls-2" d="M13.64,300.62c1.93-.22,4.37.14,5.33-1.67.61-1.14.57-2.51.36-3.72-.36-2.1-1.26-3.38-3.38-4.19-3.8-1.45-6.43,5.7-4.65,8.42l2.32,1.16Z"/>
        </g>
        <path class="cls-16" d="M3.05,275.37c0-1.88.02-3.41-.33-5.2-.37-1.89-.71-3.79-1.09-5.68-.65-3.32-1.67-6.87-1.64-10.25.03-3.01.03-5.92-.39-8.87-.51-3.5-.04-7.4-.04-10.94,0-1.59,0-3.18,0-4.78,0-.87-.04-1.76-.02-2.63.03-1.06.4-2.02.47-3.07.11-1.62-.2-3.19.2-4.77.42-1.68.22-3.51.22-5.24v-11.11c0-4.09-.53-8.61.22-12.62.69-3.67.55-7.54,1.43-11.11.13-.53.02-.99.08-1.52.07-.62.4-1.12.47-1.74.06-.49-.15-1.06-.04-1.55.1-.46.55-.59.47-1.14-.06,1.75.42,3.28.43,5.06,0,1.61,0,3.22,0,4.83-.01,2.32.47,4.56.44,6.88-.03,2.49,0,4.99-.01,7.48,0,1.41.1,2.86.02,4.27-.06,1.2-.43,2.35-.48,3.55-.13,3.16,0,6.36.03,9.52.02,2.88-.45,5.71-.44,8.6.01,4.98-.37,9.8-.83,14.72-.2,2.08-.04,4.26-.04,6.35,0,2.2-.15,4.42.22,6.59.64,3.83-.02,7.81.2,11.69.09,1.65.46,3.14.45,4.84,0,1.59,0,3.18,0,7.82Z"/>
        <path class="cls-9" d="M70.12,314.57c-8.68-1.32-29.47,47.63-41.94,74.37s-23.51,30.81-23.51,30.81l-4.22-3.78-.03-2.32,4.05,3.2s8.91-3.92,27.93-39.2c19.02-35.28,22.55-48.64,29.93-58.51,7.38-9.87,7.38-12.92,7.38-12.92l.4,8.36Z"/>
        <path class="cls-9" d="M77.23,245.2S26.52,213.9,3.91,171.35L-.16,153.33l3.86,12.92s19.94,25.46,27.54,37.17c7.6,11.71,22.43,25.19,45.99,41.78Z"/>
        <path class="cls-13" d="M10.48,175.83c-.84-.84-1.7-1.69-2.66-2.4-.4-.3-.85-.41-1.27-.65-.4-.22-.61-.41-1.08-.44-.79-.05-.69.29-.66.99.03.56.32,1.13.65,1.61.65.96,1.13,2.06,1.92,2.91.4.43.61.93.91,1.42.4.65.98,1.08,1.31,1.79.61,1.31,1.57,2.53,2.34,3.76.4.64.85,1.18,1.3,1.78.18.24.32.52.51.76.3.37.69.61,1.03.94.45.43.8.98,1.18,1.47.42.55.97.96,1.43,1.47,1.07,1.19,2.14,2.44,3.1,3.71.82,1.08,1.81,2.04,2.66,3.1.47.58,1.01,1.18,1.54,1.71.27.27.73.74,1.14.7,1.98-.15-1.36-5.16-1.65-5.68-1.52-2.73-3.55-5.13-5.25-7.75-1.72-2.67-3.6-5.18-5.41-7.76-.61-.86-1.16-1.74-1.75-2.58-.2-.29-.39-.58-.59-.86-.15-.21-.44-.39-.71,0Z"/>
        <path class="cls-4" d="M28.77,199.64c1.92,3.47,4.2,6.71,6.39,10.02,1.48,2.23,3.5,5.18,6.39,5.69,2.72.48,2.68-2.2,3.03-4.04.74-3.88.14-7.8.91-11.67.97-4.89.71-10.12.71-15.1,0-4.06.67-8.79-.13-12.78-.69-3.44-1.41-6.88-2.05-10.32-.26-1.38-.52-2.6-1.09-3.89-.64-1.47-.86-2.9-1.53-4.34-1.1-2.39-2.01-4.82-3.31-7.13-1.74-3.09-4.26-6.01-6.55-8.7-1.57-1.85-2.81-4.14-4.66-5.72-1.5-1.28-2.75-2.68-4.19-4.03-3.49-3.28-5.74-7.49-9.01-10.92-.52-.55-1.13-.76-1.63-1.26-.7-.69-1.1-1.67-1.87-2.25-.74-.57-1.58-.78-2.35-.4-1.87.92-2.04,4.55-2.45,6.27-.91,3.92-.44,8.3-.44,12.34,0,2.6-.12,5.22-.03,7.81.13,3.71.9,7.41,1.19,11.11.19,2.41.76,4.91,1.49,7.21.37,1.17,1,2.19,1.44,3.33.56,1.45.63,3.03,1.1,4.51,1.54,4.89,3.75,10.21,6.55,14.5,1.9,2.91,4.02,5.67,5.83,8.62,1.15,1.89,2.75,3.34,3.94,5.21,1.09,1.71,1.89,3.21,2.42,5.19.27,1,.55,1.36,1.11,2.12,1.35,1.83,2.43,3.93-1.23-1.39Z"/>
        <path class="cls-14" d="M78.72,239.13c-1.36.82-2.8,1.45-4.31,1.9-.57-.98-2.1-1.48-3.01-2.19-1.31-1-2.79-1.75-4-2.89-3.08-2.9-6.51-5.6-9.29-8.8-1.4-1.61-2.72-3.25-4.07-4.88-1.06-1.28-2.34-2.39-3.06-3.89-.73-1.54-1.32-3.15-1.73-4.81-.47-1.93-.49-3.74-.86-5.65-.35-1.81-.39-3.37-.44-5.25-.05-1.82-.6-3.49-.61-5.33-.02-4.48.42-9.1-.42-13.49-.49-2.54-.64-5.27-.71-7.84-.09-3.46-1.2-6.64-1.64-10.01-.31-2.37-.2-4.62-.68-6.99-.34-1.66-.59-3.21-.77-4.92-.62-5.87-1-11.84-1.01-17.74-.02-12.09,3.44-23.28,6.98-34.74,1.74-5.64,4.05-11.53,8.19-15.86,3.09-3.23,6.24-6.53,9.75-9.31,1.55-1.23,5.42-4.15,7.65-2.56.43.31,1.05,1.53,1.16,2.03.08.35-.06.86-.05,1.19.04.9.44,1.43.63,2.28.35,1.58.05,3.86,0,5.47-.11,3.49-.62,6.89-.61,10.41.01,3.2.28,6.53-.13,9.7-.51,3.88-.05,7.79-.58,11.64-.74,5.34-1.05,11.47-.32,16.84.33,2.44.19,4.96.58,7.37.58,3.57.93,7.15,1.01,10.76.04,1.62.41,3.14.55,4.75.17,2.03.04,4.09.05,6.13.02,3.88-.62,7.63-.59,11.48.06,7.45-.57,14.78-.57,22.23,0,6.94.14,13.73,1.02,20.6.7,5.46,1.31,11.07,1.88,22.36Z"/>
        <path class="cls-4" d="M4.38,398.26c-.02,3.76.19,7.17,1.74,10.64.5,1.11.52,1.54,1.73,1.59,1.4.06,2.05-1.26,2.65-2.4,1.35-2.55,1.62-5.6,2.72-8.25,1-2.42,2.5-4.31,3.7-6.59,1.11-2.13,3.08-3.64,4.31-5.74,1.39-2.37,3.28-4.28,4.64-6.69,2.22-3.92,4.89-7.93,6.55-12.18,1.53-3.91,3.83-7.5,6.81-10.45,1.67-1.66,2.59-3.45,4.07-5.21,2.02-2.4,2.96-5.37,4.35-8.15,3.84-7.63,6.24-15.35,7.98-23.68,1.49-7.09,2.56-14.33,5.05-21.15,1.58-4.33,3.01-8.59,2.95-13.27-.03-1.82.12-3.65-.03-5.46-.25-2.88-1.47-5.87-2.31-8.62-.74-2.44-.99-4.94-1.7-7.38-.74-2.56-1.43-4.92-1.9-7.55-.97-5.34-3.08-11.48-6.23-15.92-2.73-3.85-6.35-6.75-9.33-10.35-2.99-3.6-6.34-6.84-9.35-10.43-2.88-3.44-5.17-7.37-7.48-11.21-.99-1.64-1.78-3.35-2.72-5-1.05-1.84-2.66-3.29-3.69-5.15-1.56-2.84-3.23-5.41-5.2-8.01-.82-1.08-2.96-3.62-4.53-2.92-1.86.83-2.01,4.16-2.31,5.74-.24,1.3-.03,2.58-.26,3.88-.39,2.27-.48,3.89-.16,6.27,1.11,8.23,1.4,16.97.58,25.27-.58,5.8-.53,11.66-1.45,17.44-.66,4.16-1.18,8.47-1.16,12.69.03,5.62,0,11.24,0,16.86,0,3.29,0,6.59,0,9.88.01,3.57-.47,6.98-.63,10.53-.11,2.38.56,4.63.65,6.98.09,2.62-.14,5.26-.05,7.88.26,7.94,1.26,15.91,1.2,23.87-.04,6.47-.59,12.83-.59,19.3,0,5.46.45,11.13-.05,16.57-.23,2.45-.54,4.76-.53,7.24,0,2.03.13,4.12-.05,6.14-.35,3.93-1.85,9.72.05,13.02Z"/>
        <path class="cls-14" d="M76.98,326.83c-.85-1.36-1.79-3.15-2.91-4.25-.46-.45-1.02-.87-1.5-1.33-1.34-1.3-2.65-1.93-4.34-2.56-2.44-.91-4.48-.69-6.5,1.02-2.37,2.01-3.18,4.76-4.05,7.71-.61,2.07-1.95,3.84-2.8,5.81-1.04,2.39-1.74,4.89-2.87,7.27-1.76,3.73-3.14,7.62-4.92,11.33-.91,1.89-2.12,3.51-2.93,5.47-1.26,3.07-2.59,6.17-3.51,9.36-2.2,7.68-2.81,16.06-1.46,23.96.72,4.22,1.68,8.36,3.03,12.44,1.67,5.03,4.57,8.92,7.48,13.26,2,2.98,4.25,5.67,6.06,8.77,2.21,3.8,3.92,7.53,5.52,11.61,1.72,4.39,3.1,8.91,4.05,13.53,1.05,5.09,3.06,10,4.67,14.94.85,2.6,3.25,6.03,4.78,2.23.87-2.17.3-4.66.42-6.98.05-.99.37-1.94.58-2.89.3-1.38.46-2.66.72-4.05,1.07-5.53.69-11.67-.29-17.2-.48-2.71-.93-5.64-1.03-8.4-.06-1.61.15-3.15-.1-4.76-.22-1.42-.44-2.74-.47-4.18-.14-5.56.97-11.1,1.69-16.59,2.04-15.49,1.25-31.19,2.45-46.74.26-3.4,1.04-6.79,1.13-10.21.07-2.6-.03-5.22-.02-7.83.01-2.39-.44-4.57-.58-6.92-.08-1.28-.13-2.44-.42-3.71-.31-1.37-.94-2.73-1.9-.1Z"/>
        <path class="cls-12" d="M4.96,39.93c0,4.38.42,8.17,1.15,12.52.63,3.77,1.97,8.19,5.18,10.61,3.52,2.64,8.44,4.29,12.56,5.6,5.28,1.67,11.28,1.45,16.77,1.48,3.62.03,6-.85,7.92-4.12,1.16-1.97,1.38-4.05,1.71-6.27.39-2.63,1.19-5.15,1.61-7.77,1.25-7.87,2.54-16.1,5.5-23.55,1.57-3.96,2.8-8.7,2.76-13.01-.02-2.56.24-4.03-1.42-6.05-1.68-2.05-3.7-3.74-6.09-4.88-3.01-1.44-6.85-2.09-10.14-2.63-3.06-.5-6.25-.26-9.35-.26-4.57,0-10.21.03-13.95,2.89-2.43,1.87-4.37,4.29-5.81,7-1.36,2.57-3.02,4.91-4.34,7.52-1.49,2.96-2.35,6.02-3.47,9.1-2.19,6.04-.67,11.51-.6,11.82Z"/>
        <path class="cls-4" d="M27.03,392.46c.87-2.81,1.11-3.89,2.89-5.81,1.22-1.32,2.43-2.64,4.33-2.86,3.31-.4,2.97,3.29,3.29,5.45.36,2.41,1.01,4.78,1.55,7.16.65,2.87,1.04,5.9,1.89,8.71,1,3.31,1.14,6.39,1.17,9.81.03,3.82-.27,8.13-2.99,11.12-3.86,4.24-11.6,7.59-16.65,3.67-2.73-2.12-4.77-6.41-4.82-9.86-.03-2.23-.27-4.91.17-7.09.65-3.18,2.16-5.99,3.82-8.68,2.13-3.46,3.11-7.38,5.36-11.62Z"/>
        <path class="cls-16" d="M33.42,379.1c3.17-1.04,4.73-.84,5.24-3.94.24-1.46.65-2.87,1-4.33.67-2.82,1.46-5.58,2.53-8.28.95-2.39,2.37-4.61,3.43-6.97.51-1.15.99-2.32,1.46-3.49.24-.6,1.34-2.44.41-2.55,0,1.05-1.38,1.98-2.01,2.82-.97,1.29-1.57,2.64-2.32,4.07-.71,1.35-1.12,2.75-1.73,4.1-.64,1.44-1.74,2.69-2.35,4.21-1.08,2.69-2.4,5.32-3.47,8-.41,1.04-1.21,1.86-1.63,2.87-.45,1.07-.54,2.26-.56,3.5Z"/>
        <path class="cls-16" d="M48.81,222.87c-1.55-2.08-2.89-3.68-3.81-6.09-.55-1.44-.87-2.3-2.07-3.21-1.46-1.1-3.06-2.06-4.36-3.3-.62-.58-1.36-.94-1.99-1.52-.38-.35-.55-.98-1.22-.61.37.94,1.02,1.56,1.69,2.42,1.17,1.5,2.06,3.21,3.36,4.58,2.04,2.16,3.87,4.66,8.4,7.73Z"/>
        <path class="cls-16" d="M42.13,125.89c-1.32,1.41-2.68,2.78-3.61,4.49-.55,1.01-.91,1.87-2.15,2.13-2.4.51-5.34-.11-7.62-.82-.9-.28-1.73-.52-2.6-.87-.37-.15-.87-.19-1.18-.45-.03.42.42.74.67,1.02.71.84,1.37,1.74,2.04,2.61.94,1.23,1.72,2.41,2.83,3.49,1.43,1.4,2,3.1,3.19,4.67,1.86,2.46,3.86,4.77,5.69,7.25.34.47.49.94.74,1.45.26.55.7.94.98,1.46.31.6.57,1.19,1.25,1.41.44-.6.64-1.87.68-2.56.04-.75-.12-1.4-.25-2.13-.11-.63-.01-1.24-.13-1.88-.31-1.7-.42-3.45-.67-5.17-.12-.83-.06-1.66-.2-2.48-.08-.5-.23-.88-.23-1.42-.03-2.56.55-5.03.6-7.58.03-1.68.54-3.26,0-4.63Z"/>
        <path class="cls-18" d="M3.7,166.25s.93-58.72,3.28-85.55c2.34-26.83-1.62-52.92-1.62-52.92,0,0-4.26,104.42-1.66,138.47Z"/>
        <path class="cls-14" d="M3.07,272.09c.28,2.21.33,3.03,1.29,4.74.57,1.02,1.02,2.04,1.74,2.98,1.85,2.42,3.92,4.71,5.7,7.18,2.41,3.33,3.59,7.63,4.34,11.6.72,3.77,1.12,7.59,1.71,11.39.56,3.6,1.46,7.13,2.01,10.73.45,2.93.66,5.87.95,8.82.22,2.28.67,4.54.55,6.83-.16,3-1.32,5.92-2.39,8.69-1.12,2.91-1.53,5.89-3.32,8.53-.45.67-1.09,1.09-1.6,1.71-.35.42-.51.78-.98,1.13.1-.39-.31-.97-.41-1.36-.32-1.18-.45-2.5-.76-3.71-.92-3.62-1.45-7.49-1.95-11.19-.39-2.94-1.08-5.79-1.43-8.74-.33-2.79-.67-5.57-.98-8.36-.66-6.13-1.74-12.42-1.86-18.58-.03-1.8-.37-3.5-.45-5.28-.07-1.55.08-2.97-.2-4.5-.53-2.89-.71-5.81-1.32-8.72-.78-3.75-1.92-8.63-.64-13.89Z"/>
        <path class="cls-4" d="M8.3,61.71c-.59,1.23-1.35,2.37-1.32,3.72.01.53.24.76.35,1.16.29,1-.06,2.12.13,3.13.08.43.35.57.41,1.12.05.42,0,.89-.01,1.32,0,1.26.08,2.48-.22,3.7-.44,1.81-.22,3.82-.22,5.69,0,3.37-.26,6.55.86,9.78,1.13,3.23,2.02,6.03,4.23,8.72,1.99,2.42,4.94,4.4,7.97,5.25,3.11.87,6.42,1.38,9.65,1.3,4.01-.09,7.18-1.67,10.01-4.42,1.25-1.22,2.49-2.36,3.34-3.9.77-1.38,1.75-2.44,2.68-3.71,1.41-1.92,2.33-4.36,2.65-6.72.37-2.74.44-4.86-.12-7.57-.5-2.41-1.61-3.89-3.39-5.54-3.11-2.9-7.17-3.84-11.31-3.89-1.22-.01-2.36-.35-3.52-.71-1.43-.45-2.97-.6-4.29-1.29-2.04-1.07-4.15-2.04-6.34-2.81-2.24-.79-4.68-1.33-6.98-1.95-1.1-.3-4.6-1.72-4.57-2.39Z"/>
      </g>
    </g>
  </g>
</svg>